<svg width="239" height="100" viewBox="0 0 239 100" fill="none" xmlns="http://www.w3.org/2000/svg">
<path fill-rule="evenodd" clip-rule="evenodd" d="M181.646 9.49367C181.646 14.7369 177.395 18.9873 172.152 18.9873C166.909 18.9873 162.658 14.7369 162.658 9.49367C162.658 4.25046 166.909 0 172.152 0C177.395 0 181.646 4.25046 181.646 9.49367ZM46.2025 96.8354C71.7195 96.8354 92.4051 76.1499 92.4051 50.6329C92.4051 25.116 71.7195 4.43038 46.2025 4.43038C20.6856 4.43038 0 25.116 0 50.6329C0 76.1499 20.6856 96.8354 46.2025 96.8354ZM87.9747 100C92.1693 100 95.5696 96.5996 95.5696 92.4051C95.5696 88.2105 92.1693 84.8101 87.9747 84.8101C83.7801 84.8101 80.3797 88.2105 80.3797 92.4051C80.3797 96.5996 83.7801 100 87.9747 100ZM236.392 25.6329L192.089 23.4177C189.557 23.2912 188.924 25.4747 188.924 26.5823V41.7722C188.924 42.7848 190.401 43.249 191.139 43.3545L206.013 43.9874L186.076 64.8734C185.865 68.3544 185.443 75.8861 185.443 78.1646C185.443 80.4431 187.553 81.0127 188.608 81.0127C202.848 81.5401 232.025 82.595 234.81 82.595C237.595 82.595 238.08 81.3291 237.975 80.6962V65.5063C237.975 63.481 236.709 62.7637 236.076 62.6582H218.038L238.608 41.7722V27.5317C238.608 26.0127 237.131 25.6329 236.392 25.6329ZM162.975 23.4177H178.165C179.43 23.4177 182.025 23.9241 182.278 25.9494C182.532 27.9747 182.384 62.8692 182.278 80.0633C182.278 80.5907 181.835 81.6456 180.063 81.6456H162.975C162.342 81.6456 161.076 81.2026 161.076 79.4304V25.3165C161.076 24.6836 161.456 23.4177 162.975 23.4177ZM120.253 28.1646L120.57 60.4431C120.781 62.4473 122.025 66.2026 125.316 65.1899C128.608 64.1772 132.384 62.2363 133.861 61.3924L133.228 28.1646C133.439 26.7933 134.494 24.0507 137.025 24.0507H153.165C154.114 23.9452 156.013 24.6203 156.013 28.1646C156.013 31.7089 157.068 62.9747 157.595 78.1646C157.489 79.0085 156.962 80.7595 155.696 81.0127C154.114 81.3291 141.456 82.2785 140.506 81.6456C139.557 81.0127 137.025 77.8481 137.025 76.8988C136.751 77.0361 136.362 77.2469 135.878 77.5098C133.012 79.0643 126.789 82.4408 120.886 83.2279C111.392 84.4937 100.316 80.6962 99.0506 71.8355C98.5232 66.9831 97.4683 55.6962 97.4683 49.3671C97.4683 43.038 97.2574 32.595 97.1519 28.1646C97.2574 27.2152 97.9747 25.3165 100 25.3165C102.025 25.3165 112.658 24.8945 117.722 24.6836C118.554 24.6836 120.226 25.3798 120.253 28.1646Z" fill="#2F7FCE"/>
</svg>
