<svg width="320" height="320" viewBox="0 0 320 320" fill="none" xmlns="http://www.w3.org/2000/svg">
<path d="M160 305.101C238.963 305.101 302.976 270.289 302.976 227.347C302.976 184.405 238.963 149.594 160 149.594C81.0365 149.594 17.024 184.405 17.024 227.347C17.024 270.289 81.0365 305.101 160 305.101Z" fill="#F5F5F5"/>
<path d="M160 223.277C171.898 223.277 181.542 217.707 181.542 210.835C181.542 203.964 171.898 198.394 160 198.394C148.102 198.394 138.458 203.964 138.458 210.835C138.458 217.707 148.102 223.277 160 223.277Z" fill="#E0E0E0"/>
<path d="M240.339 256.525C259.147 256.525 274.394 247.722 274.394 236.864C274.394 226.006 259.147 217.203 240.339 217.203C221.531 217.203 206.285 226.006 206.285 236.864C206.285 247.722 221.531 256.525 240.339 256.525Z" fill="#E0E0E0"/>
<path d="M73.2288 258.65C92.0365 258.65 107.283 249.847 107.283 238.989C107.283 228.13 92.0365 219.328 73.2288 219.328C54.4211 219.328 39.1744 228.13 39.1744 238.989C39.1744 249.847 54.4211 258.65 73.2288 258.65Z" fill="#E0E0E0"/>
<path d="M291.2 222.893L284.768 220.262C283.96 214.703 283.494 209.098 283.373 203.482C283.373 192.973 289.92 180.122 298.227 182.272C306.534 184.422 295.885 196.179 294.157 205.261C292.429 214.342 291.2 222.893 291.2 222.893Z" fill="#2F7FCE"/>
<path opacity="0.3" d="M291.2 222.893L284.768 220.262C283.96 214.703 283.494 209.098 283.373 203.482C283.373 192.973 289.92 180.122 298.227 182.272C306.534 184.422 295.885 196.179 294.157 205.261C292.429 214.342 291.2 222.893 291.2 222.893Z" fill="black"/>
<path d="M288.083 222.08C288.154 222.07 288.217 222.033 288.26 221.977C288.304 221.921 288.323 221.85 288.314 221.779C285.248 198.739 295.61 185.939 295.712 185.83C295.758 185.775 295.78 185.704 295.773 185.633C295.767 185.561 295.732 185.495 295.677 185.45C295.622 185.404 295.55 185.382 295.479 185.388C295.408 185.395 295.342 185.43 295.296 185.485C295.194 185.613 284.678 198.566 287.776 221.85C287.781 221.885 287.792 221.919 287.81 221.95C287.829 221.981 287.853 222.008 287.881 222.029C287.91 222.051 287.942 222.066 287.977 222.075C288.012 222.084 288.048 222.085 288.083 222.08Z" fill="white"/>
<path d="M294.502 224.429L291.142 222.906C290.136 217.729 290.289 212.394 291.59 207.283C293.747 199.002 300.928 193.894 304.544 194.739C308.966 195.77 309.395 199.859 308.102 202.707C306.56 206.08 295.923 215.213 294.502 224.429Z" fill="#2F7FCE"/>
<path opacity="0.1" d="M294.502 224.429L291.142 222.906C290.136 217.729 290.289 212.394 291.59 207.283C293.747 199.002 300.928 193.894 304.544 194.739C308.966 195.77 309.395 199.859 308.102 202.707C306.56 206.08 295.923 215.213 294.502 224.429Z" fill="black"/>
<path d="M292.755 223.898C292.827 223.89 292.893 223.853 292.939 223.797C292.984 223.741 293.006 223.669 292.998 223.597C291.488 208.979 304.243 197.741 304.378 197.632C304.426 197.58 304.453 197.511 304.453 197.44C304.453 197.369 304.426 197.3 304.378 197.248C304.353 197.222 304.323 197.202 304.29 197.188C304.257 197.174 304.221 197.167 304.186 197.167C304.15 197.167 304.114 197.174 304.081 197.188C304.048 197.202 304.019 197.222 303.994 197.248C303.859 197.363 290.899 208.768 292.429 223.68C292.444 223.752 292.487 223.814 292.548 223.855C292.609 223.896 292.683 223.911 292.755 223.898Z" fill="white"/>
<path d="M35.84 217.005L40.256 214.483C40.256 214.483 42.368 202.829 40.7872 192.806C38.56 178.726 28.9664 173.856 25.4848 175.258C22.0032 176.659 21.184 180.832 27.4752 188.973C31.1872 193.773 35.9616 203.93 35.84 217.005Z" fill="#2F7FCE"/>
<g opacity="0.15">
<path d="M35.84 217.005L40.256 214.483C40.256 214.483 42.368 202.829 40.7872 192.806C38.56 178.726 28.9664 173.856 25.4848 175.258C22.0032 176.659 21.184 180.832 27.4752 188.973C31.1872 193.773 35.9616 203.93 35.84 217.005Z" fill="black"/>
</g>
<path d="M37.44 211.411H37.3952C37.3546 211.406 37.3156 211.392 37.2804 211.371C37.2451 211.351 37.2144 211.323 37.19 211.29C37.1655 211.258 37.1479 211.22 37.1381 211.181C37.1282 211.141 37.1264 211.1 37.1328 211.059C38.9504 197.869 33.6512 183.418 27.6864 177.594C27.6493 177.567 27.6185 177.532 27.596 177.492C27.5736 177.452 27.5599 177.408 27.556 177.362C27.5521 177.316 27.5581 177.271 27.5735 177.227C27.5889 177.184 27.6134 177.145 27.6454 177.112C27.6773 177.079 27.716 177.054 27.7587 177.037C27.8014 177.02 27.8471 177.013 27.8929 177.016C27.9386 177.018 27.9833 177.03 28.0239 177.052C28.0644 177.073 28.0999 177.103 28.128 177.139C34.1952 183.04 39.6032 197.76 37.76 211.136C37.7491 211.213 37.7106 211.283 37.6518 211.334C37.5929 211.384 37.5176 211.412 37.44 211.411Z" fill="white"/>
<path d="M23.6032 224.077C22.9056 224.474 21.472 223.603 20.9216 223.232C19.9775 222.581 19.2153 221.7 18.7072 220.672C18.1398 219.511 17.9474 218.203 18.1568 216.928C18.2676 216.254 18.4258 215.589 18.6304 214.938L19.1872 213.018C19.4065 212.402 19.5022 211.75 19.4688 211.098C19.3024 209.773 18.1248 208.851 17.0624 208.051C15.8784 207.168 14.656 206.003 14.6624 204.41C14.745 203.175 15.2384 202.003 16.064 201.082C16.8192 200.115 17.7216 199.264 18.4128 198.246C18.9546 197.532 19.2327 196.653 19.2 195.757C19.1267 195.212 18.9438 194.687 18.6624 194.214C18.0149 193.23 17.4498 192.194 16.9728 191.117C16.5824 190.003 16.64 188.621 17.5104 187.821C17.8977 187.531 18.339 187.322 18.8083 187.206C19.2776 187.089 19.7654 187.068 20.2432 187.142C21.1519 187.25 22.026 187.555 22.8032 188.038C25.3312 189.44 26.7712 192.435 29.4528 193.517C30.5145 193.848 31.5961 194.11 32.6912 194.304C33.2408 194.406 33.7629 194.622 34.2238 194.938C34.6846 195.255 35.0738 195.664 35.3664 196.141C36.352 198.106 34.528 200.525 35.2192 202.611C35.8592 204.454 37.6256 205.171 38.6304 206.829C39.0423 207.562 39.2083 208.407 39.104 209.242C39.0146 210.653 38.6698 212.037 38.0864 213.325C37.4299 214.605 36.679 215.836 35.84 217.005C35.8016 217.05 23.712 224 23.6032 224.077Z" fill="#2F7FCE"/>
<path d="M30.7648 220.262C30.7227 220.261 30.6814 220.251 30.6433 220.233C30.6051 220.216 30.5707 220.191 30.5422 220.16C30.5136 220.129 30.4915 220.093 30.477 220.053C30.4625 220.014 30.4559 219.972 30.4576 219.93C30.976 207.45 25.0944 193.69 20.8192 189.658C20.7609 189.599 20.7283 189.52 20.7283 189.437C20.7283 189.354 20.7609 189.275 20.8192 189.216C20.879 189.157 20.9594 189.125 21.0432 189.125C21.1269 189.125 21.2074 189.157 21.2672 189.216C25.6 193.28 31.6096 207.296 31.0784 219.962C31.0751 220.043 31.0406 220.119 30.9821 220.175C30.9237 220.231 30.8458 220.262 30.7648 220.262Z" fill="white"/>
<path d="M28.896 205.51H28.8C25.8429 204.697 22.8066 204.206 19.744 204.045C19.6591 204.045 19.5777 204.011 19.5177 203.951C19.4577 203.891 19.424 203.81 19.424 203.725C19.424 203.64 19.4577 203.559 19.5177 203.499C19.5777 203.439 19.6591 203.405 19.744 203.405C22.8609 203.567 25.951 204.067 28.96 204.896C28.9995 204.908 29.0363 204.927 29.0683 204.953C29.1003 204.979 29.1269 205.011 29.1465 205.047C29.1661 205.084 29.1784 205.123 29.1826 205.164C29.1869 205.205 29.183 205.247 29.1712 205.286C29.1525 205.347 29.1164 205.4 29.0674 205.44C29.0185 205.48 28.9588 205.504 28.896 205.51Z" fill="white"/>
<path d="M257.171 232.806L251.206 232.122L249.664 220.102L256.954 222.266L257.171 232.806Z" fill="#B16668"/>
<path d="M244.102 242.611C244.016 242.848 243.981 243.1 243.999 243.352C244.016 243.603 244.086 243.848 244.205 244.07C244.845 244.813 246.496 245.683 248.749 245.843C250.906 245.997 252.826 245.709 254.086 244.909C254.635 244.625 255.104 244.21 255.452 243.701C255.801 243.192 256.018 242.604 256.083 241.99C256.205 240.768 256.083 239.584 256.653 238.643C257.222 237.702 258.048 236.787 258.234 236.314C258.455 235.496 258.455 234.635 258.234 233.818L244.102 242.611Z" fill="#263238"/>
<path d="M249.997 231.91C249.978 232.374 249.894 232.833 249.747 233.274C249.417 234.221 248.975 235.126 248.429 235.968C248.161 236.415 247.861 236.843 247.533 237.248C246.893 238.022 246.074 238.662 245.382 239.405C244.649 240.105 244.179 241.036 244.051 242.042C243.962 243.731 246.65 244.307 248.064 244.557C249.59 244.823 251.155 244.745 252.646 244.326C253.429 244.122 254.137 243.697 254.684 243.101C255.231 242.505 255.595 241.764 255.731 240.966C255.814 240.493 255.782 240.013 255.84 239.546C256.026 238.467 256.477 237.451 257.152 236.589C257.544 236.091 257.881 235.553 258.157 234.982C258.598 233.939 258.246 232.762 257.965 231.725C257.722 230.822 257.427 229.805 257.107 229.875C257.107 230.342 257.107 230.406 256.794 230.72C256.48 231.034 256.358 231.725 255.91 232.077C256.053 231.687 256.158 231.284 256.224 230.874C256.252 230.709 256.218 230.541 256.128 230.4C255.979 230.267 255.802 230.171 255.61 230.118C254.944 229.896 254.258 229.739 253.562 229.651C252.611 229.542 251.651 229.542 250.701 229.651C250.503 229.687 250.324 229.791 250.195 229.946C250.08 230.116 250.018 230.316 250.016 230.522C249.984 230.765 250.01 231.462 249.997 231.91Z" fill="#455A64"/>
<path d="M248.198 236.326C248.838 235.853 251.098 235.846 251.866 235.93C252.648 235.996 253.401 236.261 254.054 236.698C254.15 236.766 254.267 236.798 254.384 236.789C254.501 236.779 254.611 236.729 254.694 236.646C254.743 236.598 254.78 236.54 254.804 236.477C254.828 236.413 254.838 236.344 254.833 236.276C254.829 236.208 254.809 236.142 254.776 236.082C254.743 236.022 254.698 235.97 254.643 235.93C253.926 235.4 253.074 235.083 252.186 235.014C251.077 234.933 249.962 234.998 248.87 235.206C248.87 235.206 248.013 235.763 248.198 236.326Z" fill="#F5F5F5"/>
<path d="M246.752 238.08C247.546 237.613 249.952 237.677 250.726 237.76C251.494 237.839 252.227 238.119 252.851 238.573C252.947 238.64 253.064 238.671 253.18 238.662C253.297 238.652 253.407 238.603 253.491 238.522C253.54 238.474 253.577 238.416 253.601 238.352C253.625 238.288 253.635 238.22 253.63 238.151C253.625 238.083 253.606 238.017 253.573 237.957C253.54 237.897 253.495 237.845 253.44 237.805C252.39 237.261 251.245 236.926 250.067 236.819C248.147 236.685 247.68 237.069 247.68 237.069C247.46 237.158 247.262 237.294 247.102 237.469C246.941 237.644 246.822 237.853 246.752 238.08Z" fill="#F5F5F5"/>
<path d="M252.941 233.203C251.858 233.079 250.762 233.147 249.702 233.402C249.37 233.587 249.146 234.118 249.363 234.253C250.33 233.992 251.333 233.892 252.333 233.958C253.042 234.03 253.735 234.22 254.381 234.522C254.547 234.598 254.739 234.694 254.906 234.79C254.959 234.824 255.019 234.847 255.082 234.855C255.145 234.864 255.209 234.859 255.27 234.841C255.33 234.823 255.386 234.791 255.434 234.75C255.482 234.708 255.52 234.656 255.546 234.598C255.591 234.504 255.6 234.396 255.57 234.296C255.541 234.195 255.475 234.109 255.386 234.054C254.641 233.599 253.807 233.309 252.941 233.203Z" fill="#F5F5F5"/>
<path d="M234.931 227.341L229.261 225.76V214.298L236.294 214.605L234.931 227.341Z" fill="#B16668"/>
<path d="M217.28 233.478C217.12 233.973 217.15 234.509 217.363 234.982C217.574 235.418 219.872 236.717 222.97 236.506C225.264 236.341 227.473 235.568 229.37 234.266C230.547 233.485 231.776 233.338 233.312 233.254C234.848 233.171 236.858 232.397 237.197 231.68C237.37 231.038 237.352 230.36 237.146 229.728L217.28 233.478Z" fill="#263238"/>
<path d="M229.76 223.814L229.517 223.763C229.382 223.731 229.242 223.731 229.107 223.763C228.958 223.812 228.826 223.901 228.723 224.019C228.421 224.409 228.157 224.827 227.936 225.267C227.296 226.323 225.92 227.187 224.435 228C223.424 228.544 222.432 228.966 221.389 229.434C220.346 229.901 218.906 230.208 218.074 230.771C216.858 231.59 216.698 233.645 218.074 234.458C219.264 235.162 222.413 235.923 225.709 234.989C227.501 234.477 229.498 232.563 231.853 232.378C233.35 232.256 236.186 231.84 237.152 230.701C237.51 230.195 237.03 228.595 236.64 227.213C236.211 225.702 235.808 223.373 235.309 223.482C235.313 223.59 235.292 223.697 235.246 223.795C235.2 223.893 235.132 223.979 235.046 224.045C234.861 224.237 234.611 224.358 234.406 224.531C234.057 224.875 233.775 225.281 233.574 225.728C233.493 225.927 233.343 226.09 233.152 226.189C232.896 226.278 232.71 226.125 232.512 226.022C232.231 225.894 231.913 225.871 231.616 225.958C231.647 225.658 231.7 225.361 231.776 225.069C231.805 224.977 231.805 224.879 231.776 224.787C231.74 224.694 231.672 224.617 231.584 224.57C231.036 224.193 230.414 223.936 229.76 223.814Z" fill="#455A64"/>
<path d="M225.856 227.162C225.963 226.955 226.121 226.778 226.314 226.648C226.508 226.518 226.731 226.44 226.963 226.419C227.642 226.291 228.845 226.797 229.594 227.411C229.665 227.468 229.721 227.542 229.757 227.626C229.794 227.71 229.809 227.801 229.801 227.892C229.793 227.984 229.764 228.071 229.714 228.148C229.664 228.225 229.597 228.288 229.517 228.333C229.416 228.39 229.3 228.414 229.185 228.401C229.071 228.388 228.963 228.34 228.877 228.262C228.051 227.518 226.968 227.123 225.856 227.162Z" fill="#F5F5F5"/>
<path d="M223.738 228.346C223.886 228.136 224.083 227.965 224.311 227.847C224.539 227.729 224.793 227.667 225.05 227.667C226.102 227.713 227.112 228.092 227.936 228.749C228.003 228.805 228.056 228.876 228.09 228.957C228.124 229.038 228.137 229.126 228.13 229.214C228.122 229.301 228.094 229.385 228.047 229.459C228 229.533 227.935 229.595 227.859 229.638C227.76 229.698 227.643 229.724 227.527 229.711C227.412 229.698 227.303 229.648 227.219 229.568C226.766 229.118 226.219 228.775 225.617 228.563C225.014 228.352 224.372 228.277 223.738 228.346Z" fill="#F5F5F5"/>
<path d="M221.44 229.408C221.609 229.215 221.818 229.06 222.052 228.955C222.286 228.851 222.54 228.798 222.797 228.8C223.81 228.862 224.778 229.243 225.562 229.888C225.629 229.945 225.682 230.017 225.715 230.098C225.749 230.18 225.763 230.268 225.755 230.356C225.748 230.444 225.719 230.528 225.672 230.603C225.625 230.677 225.561 230.74 225.485 230.784C225.385 230.844 225.269 230.87 225.153 230.857C225.037 230.844 224.929 230.794 224.845 230.714C224.417 230.247 223.887 229.887 223.296 229.66C222.705 229.434 222.07 229.347 221.44 229.408Z" fill="#F5F5F5"/>
<path d="M255.866 152.557C256.256 164.378 256.282 189.978 256.282 189.978C256.403 191.45 256.531 194.061 256.64 199.36C256.8 207.04 257.171 226.003 257.171 226.003C257.171 226.003 253.504 227.725 250.131 226.323C250.131 226.323 245.446 199.661 244.486 192.058C243.648 185.421 242.042 169.856 242.042 169.856L239.827 189.613C239.827 189.613 239.827 194.733 239.526 199.251C239.277 202.771 235.859 220.902 235.859 220.902C233.627 221.495 231.27 221.418 229.082 220.678C229.082 220.678 228.774 192.845 228.71 189.613C228.64 185.939 229.587 146.221 229.587 146.221L255.866 152.557Z" fill="#455A64"/>
<path d="M242.054 169.856L241.21 163.155C238.482 162.458 235.902 161.274 233.594 159.661C233.594 159.661 235.219 161.837 239.994 164.141L241.069 170.221L239.853 189.613L242.054 169.856Z" fill="#37474F"/>
<path d="M229.286 119.386C227.558 121.651 218.669 133.85 218.669 133.85L210.458 127.488C208.538 125.984 207.968 124.013 206.765 122.65C205.562 121.286 204.243 120.96 202.893 119.821C201.542 118.682 201.024 117.818 200.563 118.79C200.102 119.763 201.594 121.459 201.843 121.869C202.093 122.278 203.635 123.258 201.6 123.149C199.565 123.04 195.648 120.717 194.701 120.288C193.754 119.859 193.728 121.03 194.176 121.798C194.624 122.566 194.4 124.704 194.925 126.08C195.45 127.456 196.371 128.301 198.246 129.229C199.994 130.099 204.243 130.643 205.626 131.514C208.659 134.624 214.381 140.429 215.827 141.504C217.818 142.982 219.744 144.346 222.79 141.414C225.837 138.483 234.662 126.982 234.662 126.982L236.486 116.045C233.491 115.936 231.373 116.653 229.286 119.386Z" fill="#B16668"/>
<path d="M218.669 133.85C219.795 134.682 220.966 136.55 221.075 137.389C221.062 136.594 220.885 135.811 220.554 135.089C220.224 134.366 219.747 133.72 219.155 133.19L218.669 133.85Z" fill="#9A4A4D"/>
<path d="M237.19 115.776C237.19 115.776 232.966 115.725 231.11 117.024C229.254 118.323 227.878 120.224 224.864 124.608C222.221 128.448 220.941 130.291 220.941 130.291C222.671 132.851 225.19 134.774 228.115 135.77L236 126.003L237.19 115.776Z" fill="#37474F"/>
<path d="M245.363 115.571C247.757 115.802 251.123 115.827 253.491 116.07C255.136 116.749 258.31 119.514 258.074 121.485C257.19 128.851 255.405 140.928 255.405 140.928L255.994 153.728C252.698 157.018 237.274 158.304 229.325 153.043C229.325 153.043 229.581 130.054 230.131 126.163C231.11 119.194 231.968 116.608 235.565 115.994C239.162 115.379 245.363 115.571 245.363 115.571Z" fill="#2F7FCE"/>
<path d="M258.918 119.571C260.646 121.837 269.542 134.035 269.542 134.035L277.76 127.674C279.68 126.163 280.25 124.192 281.453 122.835C282.656 121.478 283.974 121.146 285.325 120.006C286.675 118.867 287.194 118.003 287.654 118.97C288.115 119.936 286.624 121.645 286.374 122.054C286.125 122.464 284.582 123.443 286.618 123.334C288.653 123.226 292.563 120.896 293.517 120.467C294.47 120.038 294.483 121.21 294.042 121.978C293.6 122.746 293.811 124.89 293.293 126.266C292.774 127.642 291.846 128.48 289.971 129.414C288.224 130.285 283.974 130.829 282.592 131.699C279.558 134.803 273.837 140.614 272.39 141.683C270.4 143.162 268.474 144.525 265.427 141.6C262.381 138.675 255.418 129.568 255.418 129.568L251.731 116.23C254.72 116.122 256.838 116.838 258.918 119.571Z" fill="#B16668"/>
<path d="M269.542 134.035C268.416 134.867 267.245 136.736 267.136 137.574C267.148 136.779 267.325 135.995 267.656 135.271C267.986 134.547 268.463 133.9 269.056 133.37L269.542 134.035Z" fill="#9A4A4D"/>
<path d="M251.309 115.91C251.309 115.91 255.104 115.674 257.101 117.19C258.899 118.573 260.301 120.39 263.347 124.774C265.99 128.614 267.27 130.458 267.27 130.458C265.536 133.016 263.015 134.94 260.09 135.936L254.72 129.318C251.923 125.773 249.152 120.378 251.309 115.91Z" fill="#37474F"/>
<path d="M245.958 98.24C245.971 99.7083 245.548 101.147 244.743 102.375C243.938 103.603 242.786 104.564 241.435 105.138C240.083 105.711 238.592 105.871 237.149 105.597C235.707 105.323 234.378 104.628 233.331 103.598C232.283 102.569 231.565 101.252 231.266 99.8149C230.967 98.3773 231.101 96.8834 231.652 95.522C232.202 94.1607 233.143 92.9931 234.357 92.1668C235.571 91.3405 237.002 90.8927 238.47 90.88C239.445 90.8716 240.412 91.0553 241.316 91.4206C242.22 91.7859 243.043 92.3257 243.739 93.0091C244.434 93.6926 244.988 94.5063 245.369 95.4038C245.75 96.3013 245.95 97.2651 245.958 98.24Z" fill="#263238"/>
<path d="M251.418 103.475C251.418 103.475 250.259 109.139 249.786 110.067C249.47 110.643 248.946 111.077 248.32 111.277L248.365 107.296L251.418 103.475Z" fill="#263238"/>
<path d="M249.837 95.392C250.256 95.3381 250.683 95.3811 251.083 95.5175C251.484 95.654 251.848 95.8803 252.147 96.1792C253.146 97.184 252.621 100.358 251.418 103.475L249.152 103.757L249.837 95.392Z" fill="#263238"/>
<path d="M248.474 103.763C248.928 104.032 249.568 103.123 250.125 102.56C250.682 101.997 252.499 101.152 253.434 103.066C254.368 104.979 252.666 107.622 251.232 108.083C248.755 108.89 248.365 107.296 248.365 107.296L248.262 116.525C245.216 120.512 236.646 120.25 240.179 116.09V113.363C239.076 113.548 237.956 113.615 236.838 113.562C235.008 113.299 233.85 111.866 233.274 109.894C232.358 106.733 231.994 104.173 232.698 97.92C233.466 91.072 241.421 90.9312 245.741 93.6C250.061 96.2688 248.474 103.763 248.474 103.763Z" fill="#B16668"/>
<path d="M248.48 104.525C248.704 104.525 249.562 103.078 250.125 102.56C250.899 101.837 249.837 95.392 249.837 95.392C250.103 94.8201 250.19 94.1813 250.087 93.5591C249.984 92.9369 249.696 92.3601 249.261 91.904C248.179 90.7328 246.669 89.3056 241.805 89.92C238.33 90.3616 234.56 91.4816 231.494 90.0096C231.221 91.0076 231.252 92.0643 231.583 93.0447C231.913 94.0251 232.529 94.8847 233.35 95.5136C233.35 95.5136 234.464 96.2176 237.376 96.544C240.061 96.7206 242.756 96.6456 245.427 96.32C246.272 96.1984 246.458 97.0112 246.931 99.2448C247.347 101.197 247.712 104.518 248.48 104.525Z" fill="#263238"/>
<path d="M249.837 95.8912L252.57 94.3936C252.481 94.2087 252.355 94.0438 252.201 93.9089C252.046 93.774 251.866 93.6721 251.671 93.6092C251.476 93.5463 251.27 93.5238 251.065 93.5432C250.861 93.5625 250.663 93.6232 250.483 93.7216C250.117 93.9306 249.845 94.2727 249.725 94.6768C249.605 95.0809 249.645 95.5159 249.837 95.8912Z" fill="#263238"/>
<path d="M240.16 113.363C240.16 113.363 244.23 112.506 245.645 111.738C246.479 111.294 247.159 110.609 247.597 109.773C247.39 110.606 247.018 111.39 246.502 112.077C245.472 113.421 240.173 114.445 240.173 114.445L240.16 113.363Z" fill="#9A4A4D"/>
<path d="M239.834 103.11C239.832 103.219 239.852 103.328 239.892 103.429C239.932 103.53 239.992 103.622 240.069 103.7C240.145 103.778 240.236 103.84 240.336 103.883C240.436 103.926 240.544 103.948 240.653 103.949C240.823 103.955 240.991 103.91 241.135 103.82C241.28 103.73 241.394 103.599 241.463 103.443C241.532 103.288 241.553 103.115 241.522 102.947C241.492 102.78 241.413 102.625 241.294 102.503C241.175 102.382 241.022 102.298 240.855 102.264C240.688 102.23 240.515 102.247 240.358 102.312C240.201 102.378 240.067 102.489 239.973 102.631C239.88 102.773 239.831 102.94 239.834 103.11Z" fill="#263238"/>
<path d="M242.259 100.301L240.442 99.4752C240.336 99.7238 240.33 100.004 240.426 100.256C240.521 100.509 240.71 100.715 240.954 100.832C241.074 100.885 241.204 100.914 241.335 100.916C241.467 100.918 241.597 100.893 241.719 100.844C241.841 100.794 241.952 100.721 242.045 100.627C242.137 100.534 242.21 100.423 242.259 100.301Z" fill="#263238"/>
<path d="M234.483 99.296L232.902 100.538C232.977 100.645 233.073 100.736 233.185 100.805C233.296 100.874 233.421 100.919 233.55 100.938C233.68 100.957 233.812 100.948 233.939 100.913C234.065 100.879 234.183 100.818 234.285 100.736C234.495 100.566 234.632 100.323 234.669 100.055C234.706 99.7878 234.639 99.5163 234.483 99.296Z" fill="#263238"/>
<path d="M233.53 102.912C233.537 103.065 233.589 103.212 233.68 103.335C233.77 103.459 233.895 103.553 234.039 103.606C234.182 103.659 234.338 103.669 234.487 103.634C234.636 103.599 234.772 103.521 234.877 103.41C234.982 103.299 235.052 103.159 235.079 103.008C235.105 102.858 235.087 102.702 235.025 102.562C234.964 102.422 234.864 102.303 234.735 102.219C234.607 102.136 234.457 102.092 234.304 102.093C234.199 102.095 234.096 102.118 234 102.161C233.904 102.204 233.818 102.265 233.746 102.341C233.674 102.417 233.618 102.507 233.581 102.605C233.544 102.703 233.526 102.807 233.53 102.912Z" fill="#263238"/>
<path d="M237.766 102.253L237.306 107.149L234.778 106.176L237.766 102.253Z" fill="#9A4A4D"/>
<path d="M239.155 108.986C239.154 109.142 239.199 109.294 239.285 109.425C239.37 109.555 239.493 109.657 239.637 109.717C239.78 109.778 239.939 109.794 240.092 109.765C240.245 109.735 240.386 109.661 240.497 109.551C240.607 109.441 240.683 109.301 240.714 109.148C240.745 108.995 240.73 108.836 240.67 108.692C240.611 108.548 240.51 108.425 240.38 108.338C240.251 108.251 240.098 108.205 239.942 108.205C239.735 108.205 239.535 108.287 239.388 108.433C239.241 108.579 239.157 108.778 239.155 108.986Z" fill="#9A4A4D"/>
<path d="M259.136 56.8448C260.356 57.1166 261.533 57.5582 262.63 58.1568C263.68 58.7219 264.621 59.4696 265.408 60.3648C266.165 61.2322 266.725 62.2543 267.046 63.36C267.383 64.532 267.41 65.7715 267.123 66.9568C266.934 67.8977 266.56 68.7917 266.022 69.5872C265.54 70.2716 264.96 70.8818 264.301 71.3984C263.656 71.8989 262.968 72.3422 262.246 72.7232L260.211 73.7984C259.597 74.119 259.014 74.4961 258.47 74.9248C257.979 75.2977 257.602 75.8011 257.382 76.3776C257.272 76.6347 257.093 76.8562 256.864 77.0176C256.754 77.1014 256.627 77.1594 256.492 77.1871C256.357 77.2148 256.217 77.2115 256.083 77.1776L253.088 76.5376C252.944 76.5073 252.808 76.4487 252.687 76.3652C252.566 76.2817 252.463 76.1749 252.384 76.0512C252.3 75.9353 252.245 75.8013 252.223 75.6601C252.201 75.5189 252.212 75.3744 252.256 75.2384C252.505 74.3074 252.941 73.4365 253.536 72.6784C254.072 72.0093 254.692 71.4114 255.379 70.8992C256.043 70.4133 256.748 69.985 257.485 69.6192C258.214 69.2544 258.893 68.9024 259.52 68.5568C260.094 68.2538 260.632 67.889 261.126 67.4688C261.557 67.1059 261.857 66.611 261.978 66.0608C262.088 65.5803 262.081 65.0801 261.956 64.6031C261.831 64.126 261.593 63.6863 261.261 63.3216C260.433 62.4172 259.327 61.8157 258.118 61.6128C255.883 61.1136 253.993 61.8667 252.448 63.872C252.3 64.0916 252.111 64.2806 251.891 64.4288C251.772 64.4893 251.643 64.5255 251.51 64.5354C251.377 64.5453 251.243 64.5287 251.117 64.4864L247.917 63.776C247.804 63.7543 247.697 63.7102 247.601 63.6465C247.505 63.5828 247.423 63.5006 247.36 63.4048C247.29 63.3068 247.243 63.1945 247.222 63.0761C247.201 62.9576 247.207 62.836 247.238 62.72C247.507 61.7364 248.013 60.8334 248.71 60.0896C249.493 59.2252 250.423 58.5059 251.456 57.9648C252.588 57.3704 253.809 56.964 255.072 56.7616C256.419 56.5246 257.8 56.5528 259.136 56.8448ZM255.757 79.5904C255.897 79.6204 256.03 79.6791 256.147 79.7628C256.264 79.8465 256.362 79.9534 256.435 80.0768C256.514 80.1963 256.568 80.3305 256.593 80.4713C256.618 80.6121 256.615 80.7566 256.582 80.896L255.814 84.3648C255.75 84.6417 255.581 84.8827 255.342 85.0368C255.103 85.1909 254.813 85.246 254.534 85.1904L251.142 84.4416C251.003 84.4116 250.871 84.3536 250.754 84.2711C250.637 84.1886 250.539 84.0833 250.464 83.9616C250.384 83.8426 250.33 83.7084 250.305 83.5674C250.279 83.4264 250.283 83.2817 250.317 83.1424L251.085 79.6672C251.149 79.3903 251.319 79.1493 251.558 78.9952C251.797 78.8411 252.086 78.786 252.365 78.8416L255.757 79.5904Z" fill="#2F7FCE"/>
<path d="M269.197 89.4784C270.043 89.3389 270.905 89.3216 271.757 89.4272C272.575 89.5201 273.371 89.7586 274.106 90.1312C274.807 90.4902 275.423 90.9967 275.91 91.616C276.427 92.2798 276.76 93.0677 276.877 93.9008C277.01 94.549 277.01 95.2174 276.877 95.8656C276.744 96.4296 276.528 96.9709 276.237 97.472C275.952 97.9551 275.626 98.4132 275.264 98.8416L274.234 100.058C273.923 100.421 273.645 100.811 273.402 101.222C273.185 101.588 273.074 102.007 273.082 102.432C273.081 102.632 273.023 102.827 272.915 102.995C272.866 103.076 272.8 103.144 272.722 103.196C272.643 103.248 272.554 103.282 272.461 103.296L270.368 103.642C270.166 103.673 269.959 103.625 269.792 103.507C269.71 103.454 269.641 103.382 269.591 103.298C269.541 103.213 269.512 103.119 269.504 103.021C269.416 102.365 269.467 101.698 269.651 101.062C269.817 100.492 270.061 99.9474 270.374 99.4432C270.674 98.9606 271.014 98.5045 271.392 98.08C271.77 97.6576 272.109 97.2608 272.429 96.8768C272.717 96.5355 272.968 96.1644 273.178 95.7696C273.361 95.4269 273.426 95.0332 273.363 94.6496C273.311 94.3124 273.178 93.993 272.975 93.7187C272.772 93.4445 272.506 93.2236 272.198 93.0752C271.44 92.7047 270.578 92.601 269.754 92.7808C269.007 92.8908 268.313 93.2282 267.766 93.747C267.218 94.2658 266.844 94.9408 266.694 95.68C266.654 95.8605 266.58 96.032 266.477 96.1856C266.353 96.3217 266.181 96.4043 265.997 96.416L263.77 96.7808C263.611 96.8068 263.449 96.7726 263.315 96.6848C263.245 96.6395 263.186 96.5793 263.142 96.5085C263.097 96.4377 263.069 96.3581 263.059 96.2752C262.982 95.5761 263.076 94.8687 263.334 94.2144C263.612 93.4579 264.024 92.7576 264.55 92.1472C265.125 91.4773 265.803 90.9045 266.56 90.4512C267.367 89.9588 268.263 89.6284 269.197 89.4784ZM272.851 104.96C272.949 104.944 273.05 104.947 273.146 104.97C273.243 104.993 273.334 105.035 273.414 105.094C273.494 105.151 273.562 105.224 273.614 105.307C273.666 105.391 273.7 105.484 273.715 105.581L274.112 108C274.128 108.098 274.125 108.198 274.102 108.295C274.079 108.392 274.037 108.483 273.978 108.563C273.922 108.644 273.849 108.712 273.766 108.764C273.682 108.816 273.589 108.85 273.491 108.864L271.123 109.254C271.026 109.27 270.927 109.267 270.831 109.244C270.736 109.22 270.646 109.178 270.566 109.12C270.484 109.065 270.415 108.993 270.362 108.909C270.309 108.825 270.274 108.731 270.259 108.634L269.862 106.208C269.833 106.009 269.884 105.806 270.004 105.644C270.124 105.482 270.303 105.374 270.502 105.344L272.851 104.96Z" fill="#2F7FCE"/>
<g opacity="0.2">
<path d="M269.197 89.4784C270.043 89.3389 270.905 89.3216 271.757 89.4272C272.575 89.5201 273.371 89.7586 274.106 90.1312C274.807 90.4902 275.423 90.9967 275.91 91.616C276.427 92.2798 276.76 93.0677 276.877 93.9008C277.01 94.549 277.01 95.2174 276.877 95.8656C276.744 96.4296 276.528 96.9709 276.237 97.472C275.952 97.9551 275.626 98.4132 275.264 98.8416L274.234 100.058C273.923 100.421 273.645 100.811 273.402 101.222C273.185 101.588 273.074 102.007 273.082 102.432C273.081 102.632 273.023 102.827 272.915 102.995C272.866 103.076 272.8 103.144 272.722 103.196C272.643 103.248 272.554 103.282 272.461 103.296L270.368 103.642C270.166 103.673 269.959 103.625 269.792 103.507C269.71 103.454 269.641 103.382 269.591 103.298C269.541 103.213 269.512 103.119 269.504 103.021C269.416 102.365 269.467 101.698 269.651 101.062C269.817 100.492 270.061 99.9474 270.374 99.4432C270.674 98.9606 271.014 98.5045 271.392 98.08C271.77 97.6576 272.109 97.2608 272.429 96.8768C272.717 96.5355 272.968 96.1644 273.178 95.7696C273.361 95.4269 273.426 95.0332 273.363 94.6496C273.311 94.3124 273.178 93.993 272.975 93.7187C272.772 93.4445 272.506 93.2236 272.198 93.0752C271.44 92.7047 270.578 92.601 269.754 92.7808C269.007 92.8908 268.313 93.2282 267.766 93.747C267.218 94.2658 266.844 94.9408 266.694 95.68C266.654 95.8605 266.58 96.032 266.477 96.1856C266.353 96.3217 266.181 96.4043 265.997 96.416L263.77 96.7808C263.611 96.8068 263.449 96.7726 263.315 96.6848C263.245 96.6395 263.186 96.5793 263.142 96.5085C263.097 96.4377 263.069 96.3581 263.059 96.2752C262.982 95.5761 263.076 94.8687 263.334 94.2144C263.612 93.4579 264.024 92.7576 264.55 92.1472C265.125 91.4773 265.803 90.9045 266.56 90.4512C267.367 89.9588 268.263 89.6284 269.197 89.4784ZM272.851 104.96C272.949 104.944 273.05 104.947 273.146 104.97C273.243 104.993 273.334 105.035 273.414 105.094C273.494 105.151 273.562 105.224 273.614 105.307C273.666 105.391 273.7 105.484 273.715 105.581L274.112 108C274.128 108.098 274.125 108.198 274.102 108.295C274.079 108.392 274.037 108.483 273.978 108.563C273.922 108.644 273.849 108.712 273.766 108.764C273.682 108.816 273.589 108.85 273.491 108.864L271.123 109.254C271.026 109.27 270.927 109.267 270.831 109.244C270.736 109.22 270.646 109.178 270.566 109.12C270.484 109.065 270.415 108.993 270.362 108.909C270.309 108.825 270.274 108.731 270.259 108.634L269.862 106.208C269.833 106.009 269.884 105.806 270.004 105.644C270.124 105.482 270.303 105.374 270.502 105.344L272.851 104.96Z" fill="black"/>
</g>
<path d="M291.021 96.3456C291.211 96.4842 291.339 96.6915 291.379 96.9235C291.418 97.1554 291.366 97.3935 291.232 97.5872L289.542 99.9552C289.404 100.145 289.196 100.274 288.965 100.313C288.733 100.353 288.494 100.3 288.301 100.166L285.984 98.5216C285.889 98.4547 285.808 98.3692 285.746 98.2702C285.684 98.1712 285.643 98.0608 285.626 97.9456C285.592 97.7213 285.645 97.4926 285.773 97.3056L287.462 94.9312C287.6 94.7403 287.807 94.6115 288.038 94.5728C288.264 94.5389 288.493 94.594 288.678 94.7264L291.021 96.3456ZM300.8 80.288C301.635 80.8774 302.381 81.5844 303.014 82.3872C303.626 83.1511 304.096 84.018 304.403 84.9472C304.697 85.8352 304.795 86.7761 304.691 87.7056C304.571 88.6953 304.196 89.637 303.603 90.4384C303.161 91.0864 302.596 91.641 301.939 92.0704C301.356 92.4327 300.722 92.7066 300.058 92.8832C299.414 93.055 298.757 93.1706 298.093 93.2288L296.211 93.3888C295.649 93.4404 295.093 93.5388 294.547 93.6832C294.059 93.8122 293.616 94.0735 293.267 94.4384C293.1 94.6017 292.892 94.7186 292.666 94.7776C292.556 94.8037 292.441 94.8051 292.331 94.7819C292.22 94.7587 292.116 94.7113 292.026 94.6432L289.978 93.1904C289.782 93.0497 289.649 92.8386 289.606 92.6016C289.582 92.4898 289.584 92.3739 289.611 92.2628C289.639 92.1518 289.692 92.0487 289.766 91.9616C290.243 91.3371 290.842 90.8165 291.526 90.432C292.143 90.0941 292.801 89.8401 293.485 89.6768C294.141 89.5183 294.809 89.4155 295.482 89.3696C296.122 89.3312 296.762 89.28 297.35 89.2224C297.879 89.1768 298.401 89.0716 298.906 88.9088C299.346 88.7748 299.729 88.4978 299.994 88.1216C300.232 87.7957 300.386 87.4166 300.444 87.0173C300.502 86.618 300.462 86.2105 300.326 85.8304C299.993 84.8872 299.353 84.0829 298.509 83.5456C296.986 82.4576 295.322 82.4213 293.517 83.4368C293.335 83.5531 293.133 83.6355 292.922 83.68C292.812 83.6878 292.701 83.6737 292.597 83.6386C292.493 83.6034 292.396 83.5479 292.314 83.4752L290.138 81.9264C289.979 81.8186 289.869 81.6533 289.83 81.4656C289.812 81.3696 289.814 81.2707 289.837 81.1757C289.861 81.0807 289.904 80.9918 289.965 80.9152C290.472 80.2606 291.131 79.7398 291.885 79.3984C292.75 78.998 293.68 78.7532 294.63 78.6752C295.671 78.5903 296.719 78.6724 297.734 78.9184C298.837 79.1672 299.879 79.6327 300.8 80.288Z" fill="#2F7FCE"/>
<g opacity="0.6">
<path d="M291.021 96.3456C291.211 96.4842 291.339 96.6915 291.379 96.9235C291.418 97.1554 291.366 97.3935 291.232 97.5872L289.542 99.9552C289.404 100.145 289.196 100.274 288.965 100.313C288.733 100.353 288.494 100.3 288.301 100.166L285.984 98.5216C285.889 98.4547 285.808 98.3692 285.746 98.2702C285.684 98.1712 285.643 98.0608 285.626 97.9456C285.592 97.7213 285.645 97.4926 285.773 97.3056L287.462 94.9312C287.6 94.7403 287.807 94.6115 288.038 94.5728C288.264 94.5389 288.493 94.594 288.678 94.7264L291.021 96.3456ZM300.8 80.288C301.635 80.8774 302.381 81.5844 303.014 82.3872C303.626 83.1511 304.096 84.018 304.403 84.9472C304.697 85.8352 304.795 86.7761 304.691 87.7056C304.571 88.6953 304.196 89.637 303.603 90.4384C303.161 91.0864 302.596 91.641 301.939 92.0704C301.356 92.4327 300.722 92.7066 300.058 92.8832C299.414 93.055 298.757 93.1706 298.093 93.2288L296.211 93.3888C295.649 93.4404 295.093 93.5388 294.547 93.6832C294.059 93.8122 293.616 94.0735 293.267 94.4384C293.1 94.6017 292.892 94.7186 292.666 94.7776C292.556 94.8037 292.441 94.8051 292.331 94.7819C292.22 94.7587 292.116 94.7113 292.026 94.6432L289.978 93.1904C289.782 93.0497 289.649 92.8386 289.606 92.6016C289.582 92.4898 289.584 92.3739 289.611 92.2628C289.639 92.1518 289.692 92.0487 289.766 91.9616C290.243 91.3371 290.842 90.8165 291.526 90.432C292.143 90.0941 292.801 89.8401 293.485 89.6768C294.141 89.5183 294.809 89.4155 295.482 89.3696C296.122 89.3312 296.762 89.28 297.35 89.2224C297.879 89.1768 298.401 89.0716 298.906 88.9088C299.346 88.7748 299.729 88.4978 299.994 88.1216C300.232 87.7957 300.386 87.4166 300.444 87.0173C300.502 86.618 300.462 86.2105 300.326 85.8304C299.993 84.8872 299.353 84.0829 298.509 83.5456C296.986 82.4576 295.322 82.4213 293.517 83.4368C293.335 83.5531 293.133 83.6355 292.922 83.68C292.812 83.6878 292.701 83.6737 292.597 83.6386C292.493 83.6034 292.396 83.5479 292.314 83.4752L290.138 81.9264C289.979 81.8186 289.869 81.6533 289.83 81.4656C289.812 81.3696 289.814 81.2707 289.837 81.1757C289.861 81.0807 289.904 80.9918 289.965 80.9152C290.472 80.2606 291.131 79.7398 291.885 79.3984C292.75 78.998 293.68 78.7532 294.63 78.6752C295.671 78.5903 296.719 78.6724 297.734 78.9184C298.837 79.1672 299.879 79.6327 300.8 80.288Z" fill="white"/>
</g>
<path d="M84.7872 223.053C84.7232 221.133 86.1056 202.368 86.1056 202.368L76.9664 208.998C78.8416 220.186 79.2448 222.829 79.2768 224.659C79.2381 224.812 79.2209 224.969 79.2256 225.126C79.2256 227.302 81.6896 228.474 83.6032 229.926C85.2296 231.198 86.9618 232.329 88.7808 233.306C90.1696 234.003 92.9984 234.067 93.344 233.171C91.0144 231.392 87.6288 228.73 85.7728 226.701C84.8896 225.728 84.8576 224.96 84.7872 223.053Z" fill="#FFA8A7"/>
<path d="M97.3184 235.52C97.422 235.819 97.4404 236.14 97.3714 236.449C97.3025 236.758 97.1489 237.041 96.928 237.267C95.2495 238.477 93.1604 238.974 91.1168 238.65C88.2112 238.272 86.6368 237.446 85.4784 236.474C84.32 235.501 82.688 234.131 81.3696 233.843C80.3215 233.644 79.3245 233.234 78.4384 232.64C78.048 232.262 78.0992 230.586 78.0992 230.586L97.3184 235.52Z" fill="#263238"/>
<path d="M79.2575 224.128C79.1499 224.131 79.0468 224.172 78.9662 224.243C78.8855 224.315 78.8324 224.412 78.816 224.518C78.7264 224.979 78.6303 226.323 78.4383 227.078C78.1413 228.413 78.0464 229.786 78.1568 231.149C78.3168 232.013 80.3007 232.608 81.5743 233.069C83.0721 233.721 84.4619 234.597 85.6959 235.667C87.4769 236.999 89.6026 237.792 91.8208 237.952C94.0608 237.952 96.5824 237.21 97.1648 236.173C97.8752 234.893 97.3183 234.144 93.9967 232.602C93.3567 232.314 91.1615 231.002 90.4063 230.528C88.3711 229.248 86.3552 227.462 85.4144 225.197C85.3385 224.92 85.1717 224.676 84.9408 224.506C84.7392 224.419 84.5156 224.396 84.3008 224.442C83.746 224.522 83.2066 224.686 82.7008 224.928C82.2592 225.139 81.6256 225.389 81.632 225.958C81.6456 226.156 81.6887 226.35 81.76 226.534C81.7984 226.656 81.8304 226.81 81.76 226.88C81.6896 226.95 81.536 226.88 81.4464 226.79C81.1207 226.457 80.8231 226.098 80.5568 225.715C80.3994 225.519 80.2213 225.341 80.0256 225.184C79.8297 225.073 79.6416 224.949 79.4624 224.813C79.2192 224.64 79.2703 224.397 79.2575 224.128Z" fill="#455A64"/>
<path d="M85.696 235.699C85.1136 235.226 84.4992 234.758 83.8848 234.349C83.8848 234.349 87.7888 236.723 89.3632 235.629C89.6554 235.443 89.8691 235.157 89.9635 234.824C90.058 234.491 90.0265 234.135 89.8752 233.824C89.8752 233.555 92.3584 232.397 93.344 232.282C93.6192 232.435 93.8496 232.557 93.984 232.621C97.3056 234.163 97.8624 234.906 97.152 236.192C96.5696 237.229 94.7456 238.042 91.8528 238.042C89.9712 238.08 87.04 236.8 85.696 235.699Z" fill="#37474F"/>
<path d="M89.6 233.05C91.6672 233.875 90.784 234.259 90.208 234.33C89.632 234.4 86.1568 232.41 84.032 230.707C81.9072 229.005 80.4288 227.04 79.6096 226.4C79.3024 226.163 78.9696 225.869 78.6752 225.594C78.7328 225.139 78.7776 224.723 78.816 224.506C78.8324 224.399 78.8855 224.302 78.9662 224.231C79.0469 224.159 79.1499 224.118 79.2576 224.115C79.2576 224.384 79.2192 224.634 79.424 224.832C79.6032 224.968 79.7914 225.092 79.9872 225.203C80.1829 225.361 80.361 225.539 80.5184 225.734C80.7847 226.117 81.0823 226.476 81.408 226.81C83.711 229.398 86.4927 231.517 89.6 233.05Z" fill="#263238"/>
<path d="M90.0608 234.042C90.0135 234.04 89.9682 234.022 89.9328 233.99C89.9119 233.974 89.8946 233.954 89.8817 233.931C89.8688 233.908 89.8606 233.883 89.8576 233.856C89.8546 233.83 89.8569 233.804 89.8643 233.778C89.8717 233.753 89.8841 233.729 89.9008 233.709C90.3875 233.203 90.977 232.808 91.6295 232.55C92.282 232.291 92.9823 232.176 93.6832 232.211C93.7381 232.218 93.7883 232.245 93.823 232.288C93.8577 232.332 93.8742 232.387 93.8688 232.442C93.8623 232.495 93.8353 232.543 93.7934 232.577C93.7515 232.61 93.6981 232.626 93.6448 232.621C93.012 232.595 92.3807 232.701 91.7911 232.932C91.2016 233.163 90.6667 233.515 90.2208 233.965C90.2013 233.988 90.1768 234.008 90.1492 234.021C90.1216 234.034 90.0914 234.041 90.0608 234.042Z" fill="#F5F5F5"/>
<path d="M88.2624 232.96C88.2136 232.962 88.1657 232.946 88.128 232.915C88.0915 232.876 88.0713 232.825 88.0713 232.771C88.0713 232.718 88.0915 232.666 88.128 232.627C88.6158 232.124 89.2057 231.73 89.858 231.473C90.5103 231.216 91.2101 231.101 91.9104 231.136C91.9647 231.142 92.0144 231.169 92.0486 231.212C92.0828 231.254 92.0987 231.309 92.0928 231.363C92.0869 231.418 92.0596 231.467 92.017 231.501C91.9744 231.536 91.9199 231.552 91.8656 231.546C91.2326 231.518 90.6008 231.623 90.0111 231.855C89.4213 232.086 88.8866 232.439 88.4416 232.89C88.4198 232.915 88.392 232.935 88.3608 232.947C88.3295 232.959 88.2957 232.964 88.2624 232.96Z" fill="#F5F5F5"/>
<path d="M86.4576 231.878C86.4109 231.879 86.3656 231.863 86.3296 231.834C86.2916 231.795 86.2704 231.744 86.2704 231.69C86.2704 231.636 86.2916 231.584 86.3296 231.546C86.8177 231.042 87.4075 230.649 88.0598 230.392C88.7121 230.135 89.4117 230.02 90.112 230.054C90.1389 230.057 90.1651 230.065 90.189 230.077C90.213 230.09 90.2342 230.107 90.2514 230.128C90.2687 230.149 90.2816 230.173 90.2896 230.198C90.2975 230.224 90.3002 230.251 90.2976 230.278C90.2951 230.305 90.2874 230.332 90.2748 230.355C90.2623 230.379 90.2451 230.401 90.2242 230.418C90.2034 230.435 90.1794 230.448 90.1535 230.456C90.1276 230.464 90.1005 230.467 90.0736 230.464C89.4406 230.436 88.8088 230.541 88.219 230.773C87.6293 231.004 87.0946 231.357 86.6496 231.808C86.6258 231.835 86.5958 231.855 86.5623 231.867C86.5289 231.879 86.4929 231.883 86.4576 231.878Z" fill="#F5F5F5"/>
<path d="M84.7872 230.682C84.7406 230.682 84.6953 230.666 84.6592 230.637C84.6397 230.618 84.6241 230.596 84.6134 230.571C84.6028 230.546 84.5973 230.52 84.5973 230.493C84.5973 230.466 84.6028 230.439 84.6134 230.414C84.6241 230.39 84.6397 230.367 84.6592 230.349C85.1466 229.844 85.7363 229.45 86.3888 229.193C87.0412 228.936 87.7412 228.822 88.4416 228.858C88.4949 228.864 88.5435 228.891 88.577 228.933C88.6105 228.975 88.6262 229.028 88.6208 229.082C88.6144 229.135 88.5873 229.183 88.5454 229.217C88.5035 229.25 88.4502 229.266 88.3968 229.261C87.7642 229.236 87.1332 229.342 86.5438 229.574C85.9545 229.805 85.4195 230.156 84.9728 230.605C84.9511 230.632 84.9226 230.654 84.8901 230.668C84.8576 230.681 84.8221 230.686 84.7872 230.682Z" fill="#F5F5F5"/>
<path d="M83.1552 229.485C83.1091 229.483 83.0646 229.467 83.0272 229.44C82.9893 229.402 82.968 229.35 82.968 229.296C82.968 229.242 82.9893 229.19 83.0272 229.152C83.5549 228.603 84.2011 228.181 84.9165 227.919C85.6319 227.658 86.3975 227.563 87.1552 227.642C87.1822 227.643 87.2087 227.65 87.2328 227.663C87.2569 227.675 87.2781 227.692 87.295 227.713C87.312 227.735 87.3242 227.759 87.331 227.785C87.3378 227.812 87.3389 227.839 87.3344 227.866C87.328 227.919 87.3009 227.967 87.259 228.001C87.2171 228.035 87.1638 228.05 87.1104 228.045C86.4217 227.977 85.7265 228.063 85.0755 228.298C84.4245 228.533 83.8341 228.91 83.3472 229.402C83.3248 229.431 83.2954 229.453 83.2618 229.468C83.2283 229.482 83.1916 229.488 83.1552 229.485Z" fill="#F5F5F5"/>
<path d="M67.5712 210.912L58.3488 210.746C58.4832 216.902 59.4624 223.731 59.6288 229.504C59.6288 230.592 59.6288 237.952 60.0128 240.192C60.6528 243.552 64.6208 243.098 64.832 241.088C65.0432 239.078 64.576 230.483 64.5888 229.568C64.5504 225.869 66.2848 219.616 67.2 212.966C67.2384 212.666 67.5264 211.232 67.5712 210.912Z" fill="#FFA8A7"/>
<path d="M66.3296 242.483C66.5009 244.023 66.2807 245.582 65.6896 247.014C65.3969 247.583 64.9246 248.04 64.346 248.313C63.7674 248.586 63.1148 248.66 62.4896 248.525C61.1264 248.326 59.328 247.597 58.7776 245.965C58.2564 244.462 58.0728 242.862 58.24 241.28L66.3296 242.483Z" fill="#263238"/>
<path d="M59.6032 228.8C59.0592 228.896 59.1616 231.552 59.1104 234.221C59.0528 237.088 58.3296 238.342 58.2592 240.691C58.176 243.379 58.4384 244.531 59.5392 246.054C60.64 247.578 64.0768 248.806 65.4656 246.349C66.5984 244.346 66.4448 242.266 66.0544 239.629C65.664 236.992 65.3568 234.995 65.2544 232.909C65.152 230.822 65.1072 228.973 64.6144 228.8C64.6144 229.094 64.6144 229.472 64.6144 229.76C64.6144 230.048 64.6592 231.04 64.352 231.104C64.3046 230.857 64.2768 230.607 64.2688 230.355C64.283 230.123 64.2074 229.894 64.0576 229.715C63.8725 229.579 63.6476 229.507 63.4176 229.51C62.8694 229.449 62.3181 229.419 61.7664 229.421C61.4912 229.421 61.2096 229.421 60.9408 229.466C60.7043 229.484 60.4727 229.542 60.256 229.638C60.1922 229.666 60.1347 229.706 60.0874 229.757C60.04 229.807 60.0037 229.867 59.9808 229.933C59.9616 230.034 59.9616 230.139 59.9808 230.24C60.0032 230.423 60.0032 230.608 59.9808 230.79C59.9808 230.874 59.9232 230.976 59.84 230.963C59.7568 230.95 59.744 230.874 59.7376 230.81C59.6992 230.49 59.7376 230.253 59.6992 229.882C59.6992 229.709 59.6992 229.472 59.6992 229.299C59.6992 229.126 59.6096 228.973 59.6032 228.8Z" fill="#455A64"/>
<path d="M58.304 239.923C58.304 240.314 58.2208 242.88 58.944 243.264C59.6672 243.648 59.9488 241.651 59.9488 241.651C59.9488 241.651 61.6448 240.941 64.3072 241.798C64.2176 242.221 64.7424 243.539 65.4144 243.181C66.0864 242.822 66.0544 239.898 66.0544 239.859C66.4192 242.419 66.5344 244.403 65.4144 246.349C64.0256 248.806 60.576 247.565 59.488 246.054C58.4 244.544 58.1376 243.379 58.208 240.691C58.24 240.422 58.2848 240.173 58.304 239.923Z" fill="#37474F"/>
<path d="M60.16 241.798C60.2432 242.758 59.2704 242.534 59.0912 241.158C58.912 239.782 59.3344 236.525 59.0912 234.195C59.1424 231.526 59.04 228.87 59.584 228.774C59.5808 228.806 59.5808 228.838 59.584 228.87L59.648 230.221C59.6354 230.413 59.6354 230.605 59.648 230.797C59.8272 232.755 59.936 236.557 59.9424 238.362C59.9537 239.51 60.0263 240.657 60.16 241.798Z" fill="#263238"/>
<path d="M64 241.798C64.1254 240.666 64.1874 239.527 64.1856 238.387C64.1856 236.595 64.3008 232.838 64.48 230.867C64.5494 230.502 64.5773 230.131 64.5632 229.76C64.5632 229.491 64.5632 229.12 64.5632 228.864C64.5632 228.864 64.5632 228.826 64.5632 228.8C64.9216 228.934 65.0496 229.99 65.1264 231.322C65.1264 232.096 65.1264 233.056 65.056 234.221C64.8128 236.55 65.2352 239.853 65.056 241.203C64.8768 242.554 63.936 242.758 64 241.798Z" fill="#263238"/>
<path d="M64.3776 241.869H64.3072C62.9243 241.391 61.4213 241.391 60.0384 241.869C60.0132 241.878 59.9863 241.883 59.9593 241.882C59.9323 241.882 59.9057 241.876 59.8811 241.865C59.8564 241.854 59.8341 241.838 59.8156 241.818C59.797 241.799 59.7824 241.776 59.7728 241.75C59.7631 241.725 59.7585 241.698 59.7592 241.671C59.7599 241.644 59.766 241.618 59.777 241.593C59.788 241.568 59.8037 241.546 59.8233 241.528C59.8429 241.509 59.866 241.494 59.8912 241.485C61.3666 240.958 62.9789 240.958 64.4544 241.485C64.4795 241.494 64.5026 241.508 64.5221 241.526C64.5416 241.545 64.5572 241.567 64.568 241.591C64.5788 241.616 64.5844 241.642 64.5847 241.669C64.585 241.696 64.5798 241.722 64.5696 241.747C64.5539 241.785 64.5271 241.816 64.4927 241.838C64.4584 241.86 64.4182 241.871 64.3776 241.869Z" fill="#F5F5F5"/>
<path d="M64.64 239.744C64.6169 239.75 64.5927 239.75 64.5696 239.744C63.0147 239.261 61.3501 239.261 59.7952 239.744C59.7696 239.753 59.7424 239.757 59.7153 239.755C59.6882 239.754 59.6616 239.747 59.6372 239.735C59.6128 239.723 59.591 239.706 59.573 239.686C59.5551 239.666 59.5414 239.642 59.5328 239.616C59.5238 239.591 59.52 239.564 59.5217 239.537C59.5233 239.511 59.5303 239.485 59.5422 239.461C59.5542 239.437 59.5709 239.416 59.5912 239.398C59.6116 239.381 59.6353 239.368 59.6608 239.36C61.3033 238.837 63.0678 238.837 64.7104 239.36C64.7554 239.377 64.793 239.409 64.8169 239.45C64.8407 239.492 64.8492 239.541 64.8408 239.588C64.8324 239.635 64.8077 239.678 64.771 239.709C64.7343 239.74 64.688 239.757 64.64 239.757V239.744Z" fill="#F5F5F5"/>
<path d="M59.712 237.734C59.6728 237.733 59.6347 237.721 59.6019 237.7C59.5691 237.678 59.543 237.648 59.5264 237.613C59.5047 237.564 59.5033 237.508 59.5224 237.457C59.5416 237.407 59.5798 237.366 59.6288 237.344C61.2455 236.708 63.0409 236.697 64.6656 237.312C64.6907 237.321 64.7138 237.335 64.7333 237.354C64.7528 237.372 64.7684 237.394 64.7792 237.419C64.79 237.443 64.7956 237.47 64.7959 237.496C64.7962 237.523 64.791 237.55 64.7808 237.574C64.7608 237.624 64.7221 237.664 64.6731 237.686C64.624 237.707 64.5685 237.709 64.5184 237.69C64.5184 237.69 62.0096 236.704 59.8016 237.69C59.7755 237.711 59.7449 237.726 59.712 237.734Z" fill="#F5F5F5"/>
<path d="M59.6672 235.853C59.6286 235.853 59.5906 235.842 59.5578 235.822C59.5249 235.802 59.4985 235.772 59.4816 235.738C59.4595 235.689 59.4571 235.634 59.4751 235.584C59.493 235.534 59.5298 235.492 59.5776 235.469C60.3799 235.103 61.2498 234.909 62.1315 234.899C63.0132 234.889 63.8872 235.064 64.6976 235.411C64.7219 235.422 64.7437 235.438 64.7617 235.458C64.7798 235.477 64.7937 235.5 64.8027 235.525C64.8116 235.55 64.8154 235.577 64.8139 235.604C64.8123 235.63 64.8054 235.656 64.7936 235.68C64.7826 235.704 64.7669 235.726 64.7473 235.744C64.7277 235.762 64.7047 235.776 64.6796 235.785C64.6545 235.794 64.6279 235.798 64.6013 235.796C64.5747 235.795 64.5487 235.788 64.5248 235.776C63.7645 235.461 62.9482 235.304 62.1253 235.314C61.3024 235.324 60.4901 235.501 59.7376 235.834C59.7153 235.844 59.6916 235.85 59.6672 235.853Z" fill="#F5F5F5"/>
<path d="M59.6224 233.747C59.5755 233.748 59.5298 233.733 59.4929 233.704C59.456 233.675 59.4302 233.634 59.4197 233.588C59.4092 233.543 59.4147 233.495 59.4353 233.453C59.4559 233.41 59.4903 233.377 59.5328 233.357C61.9712 232.154 64.6016 233.306 64.7104 233.357C64.7358 233.366 64.7589 233.381 64.7782 233.4C64.7975 233.42 64.8124 233.443 64.8221 233.468C64.8318 233.494 64.836 233.521 64.8344 233.548C64.8327 233.575 64.8254 233.602 64.8128 233.626C64.7904 233.675 64.7497 233.713 64.6994 233.732C64.6491 233.751 64.5932 233.75 64.544 233.728C64.544 233.728 61.984 232.608 59.7184 233.728C59.6888 233.743 59.6555 233.75 59.6224 233.747Z" fill="#F5F5F5"/>
<path d="M61.3824 151.04C58.1312 160.045 58.7008 165.696 59.2576 175.136C59.7696 183.789 60.5824 191.411 60.5824 191.411C60.4544 192.947 58.3168 195.942 58.0224 202.726C57.9281 207.503 58.1418 212.281 58.6624 217.03C58.6624 217.03 62.9184 218.586 66.5152 217.03C66.5152 217.03 70.1952 200.781 71.2 192.838C72.0704 185.907 73.5936 177.05 73.5936 177.05L76.7936 192.806C76.1681 194.924 75.847 197.12 75.84 199.328C75.84 203.034 77.5616 213.338 77.5616 213.338C77.5616 213.338 82.3296 214.88 85.3504 212.198C85.3504 212.198 86.5472 197.37 86.9696 191.718C87.5328 184.179 86.7136 163.514 84.9024 152.934L61.3824 151.04Z" fill="#455A64"/>
<path d="M73.632 177.024L74.9632 165.171C74.9632 165.171 80.9216 164.378 83.6224 161.837C82.8476 163.049 81.8149 164.074 80.5979 164.841C79.381 165.608 78.0099 166.096 76.5824 166.272L74.6624 177.306L76.8384 192.781L73.632 177.024Z" fill="#37474F"/>
<path d="M88.3648 142.253C85.4656 139.27 80.2304 132.525 80.2304 132.525L77.2736 122.285C77.9344 122.319 78.5967 122.319 79.2576 122.285C82.4576 122.496 83.3984 122.771 85.3888 124.947C86.9696 126.682 92.9984 134.912 95.0912 137.683L100.653 130.598C101.99 128.582 101.773 126.323 102.464 124.678C103.155 123.034 104.275 122.31 105.171 120.838C106.067 119.366 106.278 118.381 107.014 119.142C107.75 119.904 106.899 121.952 106.79 122.419C106.682 122.886 105.555 124.275 107.43 123.552C109.306 122.829 112.198 119.405 112.941 118.707C113.683 118.01 114.08 119.091 113.914 119.949C113.747 120.806 114.554 122.739 114.259 124.154C114.076 125.576 113.368 126.879 112.275 127.808C110.925 129.165 107.622 130.835 106.33 132.621C105.037 134.406 102.278 139.955 100.57 143.296C98.4256 147.546 96.6016 148.947 94.1696 147.514C91.7376 146.08 89.4336 143.36 88.3648 142.253Z" fill="#FFA8A7"/>
<path d="M78.2144 122.176C79.8508 122.013 81.5028 122.232 83.04 122.816C84.7744 123.597 85.952 125.274 87.648 127.546C89.344 129.818 92.3712 133.792 92.3712 133.792C92.3712 133.792 91.552 137.242 86.1504 140.339L77.3312 131.258L78.2144 122.176Z" fill="#37474F"/>
<path d="M95.0912 137.677C94.0363 138.672 93.3295 139.98 93.0752 141.408C93.0752 141.408 92.4352 139.354 94.6176 137.043L95.0912 137.677Z" fill="#F28F8F"/>
<path d="M84.6016 140.358C88.5376 137.12 87.2384 132.902 85.8048 130.061C82.9312 124.384 79.9424 122.15 78.6944 122.17L70.8672 122.246C67.1296 122.758 64.2368 122.502 63.3344 122.714C61.0304 123.258 60.9792 125.152 60.8896 127.603C60.7936 130.291 59.4176 129.837 60.1152 134.278C60.938 135.929 61.6603 137.628 62.2784 139.366C62.7008 140.902 63.8912 143.347 63.2576 145.83C63.0144 146.79 62.3616 147.75 61.3824 150.381C60.2721 153.337 59.447 156.393 58.9184 159.507C58.9184 159.507 61.2032 158.976 63.8016 156.211C63.8016 156.211 67.3536 160.966 75.8976 160.486C84.7616 159.987 85.5424 155.366 85.5424 155.366L84.1856 147.046C84.3904 143.686 84.48 142.47 84.6016 140.358Z" fill="#2F7FCE"/>
<path opacity="0.1" d="M79.488 139.52C79.488 139.52 76.288 142.08 72.5312 140.851C71.4847 140.537 70.5359 139.961 69.7753 139.177C69.0146 138.393 68.4673 137.427 68.1856 136.371C68.1856 136.371 67.8656 140.627 72.5888 141.997C73.8522 142.38 75.2056 142.346 76.4482 141.9C77.6909 141.454 78.7568 140.619 79.488 139.52Z" fill="black"/>
<path d="M57.0816 118.515C55.9232 117.67 49.6832 126.022 52.6016 128.115C55.52 130.208 58.6304 124.275 58.0032 121.472C57.376 118.669 57.0816 118.515 57.0816 118.515Z" fill="#37474F"/>
<path d="M51.4176 114.368C52.9792 112.205 54.0416 110.573 55.4688 108.717C56.2752 107.661 56.7936 106.912 57.568 105.83C58.1056 105.088 58.4192 104.461 59.0208 104.224C59.6924 103.928 60.2926 103.492 60.7808 102.944C61.0797 102.598 61.3555 102.232 61.6064 101.85C62.5085 100.6 63.5863 99.4882 64.8064 98.5472C66.0864 97.5552 67.488 96.7872 68.7936 95.84C69.568 95.2768 70.4 94.3488 69.4336 93.5104C69.1332 93.268 68.7767 93.1051 68.3968 93.0368C66.0672 92.5696 64.0512 93.408 61.7856 94.0288C60.8004 94.2974 59.8375 94.6419 58.9056 95.0592C58.4429 95.247 58.0114 95.5038 57.6256 95.8208C57.0897 96.3808 56.6564 97.0307 56.3456 97.7408C55.3536 99.5648 53.2608 101.19 51.7952 102.618C50.0736 104.294 48.5376 105.818 46.5728 107.68C44.8064 109.344 43.072 110.88 41.4528 112.698C40.1152 114.195 40.6336 115.347 40.8128 115.738C41.9648 118.003 43.2192 118.803 44.7296 120.218C45.2288 120.678 45.7344 121.133 46.24 121.587C48.1984 123.354 50.1568 125.005 52.192 126.707C54.368 128.499 55.264 129.37 57.2032 131.11C58.4269 132.234 59.4468 133.562 60.2176 135.034C63.5776 135.59 66.88 130.451 64 124.442C63.5263 123.47 62.8099 122.636 61.92 122.022C58.3744 119.494 51.4176 114.368 51.4176 114.368Z" fill="#FFA8A7"/>
<path d="M51.4176 114.368C50.3694 115.699 48.961 116.701 47.36 117.254C47.36 117.254 49.504 117.766 52.384 115.085L51.4176 114.368Z" fill="#F28F8F"/>
<path d="M63.6032 122.662C62.816 122.118 60.9024 120.96 57.0816 118.515C57.0816 118.515 57.6704 119.75 56.7424 122.854C55.8144 125.958 53.856 127.923 52.6272 128.147C52.6272 128.147 54.7648 129.837 56.736 131.744C58.7072 133.651 60.3264 135.002 61.4656 137.216C61.4656 137.216 64.2816 136.493 64.9216 131.718C65.3696 128.371 65.1008 124.442 63.6032 122.662Z" fill="#455A64"/>
<path d="M84.9792 107.29C85.5418 106.101 85.7897 104.787 85.6989 103.475C85.6081 102.162 85.1818 100.895 84.4608 99.7952C82.0352 96.3456 77.9456 94.6752 73.4272 94.7264H72.0256C65.9264 94.8288 60.384 100.064 60.2752 105.958C60.2752 110.106 60.2752 113.939 62.56 116.768C64.6656 119.398 67.9488 120.262 70.72 120.685C76.0192 121.491 81.9712 120.877 84.3776 117.267C84.3776 117.267 81.1776 117.907 81.5808 114.592C81.6384 114.067 81.1392 113.491 80.2624 112.896C80.8766 111.832 81.5994 110.835 82.4192 109.92C83.3216 109.018 84.3648 108.512 84.9792 107.29Z" fill="#263238"/>
<path d="M83.3984 110.317C83.3664 116.493 81.3888 118.048 80.3968 118.509C79.4048 118.97 77.4592 118.726 75.5712 118.451L75.6352 122.157C75.6352 122.157 77.8432 124.39 77.7152 126.093C77.5872 127.795 74.336 128.013 71.872 126.419C70.5146 125.52 69.2835 124.444 68.2112 123.219C68.0065 122.982 67.8911 122.681 67.8848 122.368L67.7312 113.658C67.7312 113.658 66.72 114.765 64.8768 113.549C64.4786 113.305 64.1353 112.982 63.8689 112.599C63.6024 112.216 63.4185 111.781 63.3288 111.323C63.2391 110.865 63.2456 110.394 63.348 109.938C63.4503 109.483 63.6462 109.054 63.9232 108.678C64.1835 108.425 64.4963 108.232 64.8394 108.113C65.1824 107.994 65.5475 107.951 65.9087 107.989C66.27 108.026 66.6187 108.142 66.9303 108.329C67.2418 108.515 67.5087 108.768 67.712 109.069C68.2752 110.118 68.224 110.861 68.992 110.739C69.76 110.618 69.792 109.786 69.8432 109.19C69.8944 108.595 69.8432 108.403 69.92 107.622C71.744 107.232 73.632 104.691 73.8432 102.835C75.0788 103.443 76.4407 103.75 77.8176 103.731C79.8592 103.59 80.9152 103.181 81.92 101.709C82.1594 102.046 82.3511 102.414 82.4896 102.803C82.7739 103.591 82.988 104.403 83.1296 105.229C83.3575 106.915 83.4474 108.616 83.3984 110.317Z" fill="#FFA8A7"/>
<path d="M75.5712 118.451C73.5808 118.221 69.4784 117.12 68.8128 115.52C69.0818 116.332 69.5933 117.043 70.2784 117.555C71.52 118.579 75.5904 119.686 75.5904 119.686L75.5712 118.451Z" fill="#F28F8F"/>
<path d="M77.5744 115.123C77.5781 115.284 77.534 115.443 77.4476 115.579C77.3612 115.714 77.2364 115.822 77.089 115.886C76.9416 115.951 76.7783 115.971 76.6197 115.943C76.4612 115.914 76.3146 115.84 76.1985 115.728C76.0824 115.617 76.0021 115.473 75.9677 115.316C75.9333 115.159 75.9465 114.995 76.0054 114.845C76.0643 114.695 76.1665 114.566 76.2988 114.474C76.4312 114.383 76.5878 114.332 76.7487 114.33C76.9632 114.326 77.1704 114.408 77.325 114.556C77.4797 114.705 77.5693 114.909 77.5744 115.123Z" fill="#B16668"/>
<path d="M76.5312 109.043C76.5417 109.157 76.5297 109.271 76.4957 109.38C76.4618 109.489 76.4067 109.59 76.3335 109.678C76.2603 109.765 76.1705 109.837 76.0694 109.89C75.9682 109.942 75.8576 109.974 75.7439 109.984C75.5689 110.003 75.3923 109.969 75.2368 109.886C75.0812 109.804 74.9539 109.677 74.871 109.522C74.7881 109.366 74.7535 109.19 74.7717 109.015C74.7898 108.84 74.8599 108.674 74.9728 108.539C75.0858 108.404 75.2365 108.306 75.4056 108.257C75.5747 108.208 75.7546 108.211 75.922 108.265C76.0895 108.32 76.237 108.423 76.3455 108.561C76.454 108.7 76.5187 108.868 76.5312 109.043Z" fill="#263238"/>
<path d="M82.304 108.678C82.3199 108.887 82.2529 109.093 82.1175 109.253C81.982 109.412 81.7892 109.512 81.5808 109.53C81.4758 109.543 81.3693 109.533 81.2684 109.501C81.1676 109.469 81.0748 109.415 80.9965 109.344C80.9181 109.273 80.856 109.186 80.8144 109.089C80.7727 108.992 80.7525 108.887 80.7552 108.781C80.7446 108.677 80.7549 108.573 80.7854 108.473C80.8159 108.373 80.8661 108.281 80.9329 108.201C80.9997 108.121 81.0818 108.055 81.1744 108.008C81.2669 107.96 81.3681 107.931 81.472 107.923C81.6821 107.914 81.8872 107.989 82.0429 108.13C82.1986 108.271 82.2924 108.468 82.304 108.678Z" fill="#263238"/>
<path d="M78.3168 107.878L78.9312 113.037L81.5744 111.936L78.3168 107.878Z" fill="#F28F8F"/>
<path d="M73.4464 106.816L74.9824 105.357C75.1737 105.57 75.2757 105.848 75.2674 106.134C75.2591 106.42 75.141 106.692 74.9376 106.893C74.8363 106.989 74.7165 107.063 74.5855 107.112C74.4545 107.16 74.315 107.181 74.1755 107.174C74.0361 107.167 73.8995 107.132 73.7742 107.07C73.6488 107.008 73.5373 106.922 73.4464 106.816Z" fill="#263238"/>
<path d="M81.1328 104.883L82.8352 106.163C82.7568 106.279 82.6556 106.377 82.5379 106.452C82.4201 106.527 82.2882 106.577 82.1503 106.599C82.0125 106.622 81.8715 106.615 81.7362 106.581C81.6008 106.547 81.4739 106.485 81.3632 106.4C81.1403 106.223 80.9926 105.968 80.9499 105.687C80.9071 105.406 80.9725 105.118 81.1328 104.883Z" fill="#263238"/>
<path d="M56.5952 58.0032C57.8224 57.7692 59.0768 57.7132 60.32 57.8368C61.508 57.941 62.6677 58.2575 63.744 58.7712C64.7767 59.2641 65.6896 59.9761 66.4192 60.8576C67.1886 61.801 67.7001 62.9278 67.904 64.128C68.0959 65.0698 68.0959 66.0406 67.904 66.9824C67.732 67.8021 67.4386 68.5916 67.0336 69.3248C66.6405 70.0383 66.1843 70.7151 65.6704 71.3472C65.1584 71.9872 64.672 72.576 64.2176 73.1456C63.783 73.6817 63.3974 74.2557 63.0656 74.8608C62.7606 75.398 62.612 76.0099 62.6368 76.6272C62.6405 76.9142 62.5676 77.197 62.4256 77.4464C62.3586 77.5643 62.2666 77.6661 62.156 77.7446C62.0454 77.8231 61.919 77.8764 61.7856 77.9008L58.7712 78.4704C58.628 78.4989 58.4806 78.4983 58.3376 78.4686C58.1947 78.4389 58.0592 78.3807 57.9392 78.2976C57.8143 78.2261 57.7088 78.1252 57.6319 78.0036C57.5549 77.882 57.5088 77.7435 57.4976 77.6C57.3506 76.6531 57.3986 75.6861 57.6384 74.7584C57.866 73.9318 58.1994 73.138 58.6304 72.3968C59.0471 71.6909 59.5246 71.0228 60.0576 70.4C60.5888 69.76 61.0688 69.184 61.5104 68.6208C61.9164 68.115 62.2682 67.568 62.56 66.9888C62.811 66.4862 62.8897 65.915 62.784 65.3632C62.699 64.8769 62.4966 64.4187 62.1943 64.0283C61.8921 63.6379 61.4991 63.3273 61.0496 63.1232C59.9345 62.6164 58.682 62.497 57.4912 62.784C55.2469 63.2107 53.8069 64.6485 53.1712 67.0976C53.1153 67.3558 53.0157 67.6025 52.8768 67.8272C52.6993 68.0323 52.4493 68.1608 52.1792 68.1856L48.9792 68.7936C48.7582 68.8329 48.5304 68.7897 48.3392 68.672C48.2387 68.6056 48.1532 68.5189 48.0881 68.4175C48.0231 68.3161 47.98 68.2022 47.9616 68.0832C47.8234 67.0736 47.9332 66.0456 48.2816 65.088C48.6439 63.982 49.1986 62.9485 49.92 62.0352C50.7289 61.0352 51.6925 60.1709 52.7744 59.4752C53.9404 58.7411 55.2381 58.2412 56.5952 58.0032ZM62.4384 80.2432C62.723 80.194 63.0155 80.2572 63.2543 80.4196C63.4932 80.582 63.6595 80.8309 63.7184 81.1136L64.3584 84.608C64.3876 84.748 64.3873 84.8926 64.3576 85.0326C64.3278 85.1725 64.2693 85.3047 64.1856 85.4208C64.107 85.5399 64.0053 85.642 63.8866 85.7211C63.7679 85.8002 63.6345 85.8548 63.4944 85.8816L60.0832 86.5216C59.9421 86.5509 59.7965 86.5507 59.6555 86.521C59.5145 86.4912 59.3812 86.4326 59.264 86.3488C59.1449 86.2702 59.0428 86.1685 58.9637 86.0498C58.8846 85.9311 58.83 85.7977 58.8032 85.6576L58.1632 82.1632C58.1364 82.0226 58.1385 81.8781 58.1693 81.7384C58.2001 81.5987 58.259 81.4667 58.3424 81.3504C58.419 81.2296 58.5201 81.1261 58.6392 81.0468C58.7582 80.9674 58.8926 80.9139 59.0336 80.8896L62.4384 80.2432Z" fill="#2F7FCE"/>
<path d="M89.12 72.4224C89.8747 72.8409 90.5646 73.3669 91.168 73.984C91.7545 74.5622 92.2296 75.2434 92.5696 75.9936C92.8957 76.7111 93.0638 77.4903 93.0624 78.2784C93.0616 79.1184 92.8409 79.9437 92.4224 80.672C92.1088 81.2557 91.685 81.773 91.1744 82.1952C90.717 82.5504 90.2103 82.8371 89.6704 83.0464C89.1456 83.2515 88.6038 83.41 88.0512 83.52L86.4896 83.8272C86.0211 83.9172 85.5625 84.0523 85.12 84.2304C84.7217 84.3782 84.3734 84.6356 84.1152 84.9728C83.9893 85.1278 83.8233 85.2451 83.6352 85.312C83.5468 85.3451 83.4522 85.3583 83.3582 85.3505C83.2641 85.3428 83.1729 85.3143 83.0912 85.2672L81.2416 84.2304C81.0617 84.132 80.9282 83.9663 80.8704 83.7696C80.8389 83.6761 80.8295 83.5767 80.8428 83.479C80.8561 83.3813 80.8919 83.288 80.9472 83.2064C81.288 82.6406 81.741 82.1505 82.2784 81.7664C82.7654 81.4262 83.2947 81.1508 83.8528 80.9472C84.388 80.7568 84.9382 80.6112 85.4976 80.512C86.0544 80.416 86.5728 80.32 87.0592 80.2176C87.4981 80.1259 87.9269 79.9908 88.3392 79.8144C88.695 79.6574 88.9911 79.3905 89.184 79.0528C89.3521 78.7558 89.4457 78.4225 89.4568 78.0815C89.468 77.7404 89.3963 77.4017 89.248 77.0944C88.8824 76.3322 88.2717 75.7147 87.5136 75.3408C86.8605 74.9634 86.107 74.7966 85.3557 74.863C84.6044 74.9294 83.8919 75.2259 83.3152 75.712C83.1725 75.828 83.0098 75.9169 82.8352 75.9744C82.6519 76.0048 82.464 75.9636 82.3104 75.8592L80.3392 74.7584C80.1997 74.6799 80.0946 74.5521 80.0448 74.4C80.0199 74.3205 80.0121 74.2366 80.022 74.1538C80.032 74.0711 80.0593 73.9914 80.1024 73.92C80.476 73.325 80.9875 72.8289 81.5936 72.4736C82.2835 72.0572 83.042 71.7668 83.8336 71.616C84.7001 71.4461 85.5884 71.418 86.464 71.5328C87.3983 71.6558 88.3001 71.9578 89.12 72.4224ZM82.3744 86.7904C82.4613 86.8386 82.5377 86.9036 82.5992 86.9816C82.6608 87.0596 82.7062 87.1491 82.7328 87.2448C82.7611 87.3391 82.7701 87.4383 82.7591 87.5361C82.7481 87.634 82.7173 87.7287 82.6688 87.8144L81.472 89.9584C81.3749 90.1329 81.2126 90.2618 81.0207 90.317C80.8288 90.3721 80.6229 90.3491 80.448 90.2528L78.3552 89.0816C78.2671 89.0359 78.19 88.9716 78.1292 88.8931C78.0684 88.8147 78.0254 88.7239 78.0032 88.6272C77.9727 88.5335 77.9621 88.4344 77.972 88.3363C77.982 88.2383 78.0122 88.1433 78.0608 88.0576L79.2576 85.9136C79.3061 85.8277 79.3713 85.7523 79.4493 85.6918C79.5273 85.6314 79.6166 85.5871 79.712 85.5616C79.8061 85.5317 79.9054 85.522 80.0036 85.533C80.1017 85.544 80.1964 85.5756 80.2816 85.6256L82.3744 86.7904Z" fill="#2F7FCE"/>
<g opacity="0.2">
<path d="M89.12 72.4224C89.8747 72.8409 90.5646 73.3669 91.168 73.984C91.7545 74.5622 92.2296 75.2434 92.5696 75.9936C92.8957 76.7111 93.0638 77.4903 93.0624 78.2784C93.0616 79.1184 92.8409 79.9437 92.4224 80.672C92.1088 81.2557 91.685 81.773 91.1744 82.1952C90.717 82.5504 90.2103 82.8371 89.6704 83.0464C89.1456 83.2515 88.6038 83.41 88.0512 83.52L86.4896 83.8272C86.0211 83.9172 85.5625 84.0523 85.12 84.2304C84.7217 84.3782 84.3734 84.6356 84.1152 84.9728C83.9893 85.1278 83.8233 85.2451 83.6352 85.312C83.5468 85.3451 83.4522 85.3583 83.3582 85.3505C83.2641 85.3428 83.1729 85.3143 83.0912 85.2672L81.2416 84.2304C81.0617 84.132 80.9282 83.9663 80.8704 83.7696C80.8389 83.6761 80.8295 83.5767 80.8428 83.479C80.8561 83.3813 80.8919 83.288 80.9472 83.2064C81.288 82.6406 81.741 82.1505 82.2784 81.7664C82.7654 81.4262 83.2947 81.1508 83.8528 80.9472C84.388 80.7568 84.9382 80.6112 85.4976 80.512C86.0544 80.416 86.5728 80.32 87.0592 80.2176C87.4981 80.1259 87.9269 79.9908 88.3392 79.8144C88.695 79.6574 88.9911 79.3905 89.184 79.0528C89.3521 78.7558 89.4457 78.4225 89.4568 78.0815C89.468 77.7404 89.3963 77.4017 89.248 77.0944C88.8824 76.3322 88.2717 75.7147 87.5136 75.3408C86.8605 74.9634 86.107 74.7966 85.3557 74.863C84.6044 74.9294 83.8919 75.2259 83.3152 75.712C83.1725 75.828 83.0098 75.9169 82.8352 75.9744C82.6519 76.0048 82.464 75.9636 82.3104 75.8592L80.3392 74.7584C80.1997 74.6799 80.0946 74.5521 80.0448 74.4C80.0199 74.3205 80.0121 74.2366 80.022 74.1538C80.032 74.0711 80.0593 73.9914 80.1024 73.92C80.476 73.325 80.9875 72.8289 81.5936 72.4736C82.2835 72.0572 83.042 71.7668 83.8336 71.616C84.7001 71.4461 85.5884 71.418 86.464 71.5328C87.3983 71.6558 88.3001 71.9578 89.12 72.4224ZM82.3744 86.7904C82.4613 86.8386 82.5377 86.9036 82.5992 86.9816C82.6608 87.0596 82.7062 87.1491 82.7328 87.2448C82.7611 87.3391 82.7701 87.4383 82.7591 87.5361C82.7481 87.634 82.7173 87.7287 82.6688 87.8144L81.472 89.9584C81.3749 90.1329 81.2126 90.2618 81.0207 90.317C80.8288 90.3721 80.6229 90.3491 80.448 90.2528L78.3552 89.0816C78.2671 89.0359 78.19 88.9716 78.1292 88.8931C78.0684 88.8147 78.0254 88.7239 78.0032 88.6272C77.9727 88.5335 77.9621 88.4344 77.972 88.3363C77.982 88.2383 78.0122 88.1433 78.0608 88.0576L79.2576 85.9136C79.3061 85.8277 79.3713 85.7523 79.4493 85.6918C79.5273 85.6314 79.6166 85.5871 79.712 85.5616C79.8061 85.5317 79.9054 85.522 80.0036 85.533C80.1017 85.544 80.1964 85.5756 80.2816 85.6256L82.3744 86.7904Z" fill="black"/>
</g>
<path d="M44.0384 95.9232C44.1236 95.8427 44.2242 95.7802 44.3342 95.7395C44.4442 95.6988 44.5612 95.6807 44.6784 95.6864C44.7985 95.688 44.917 95.7138 45.027 95.7622C45.1369 95.8106 45.236 95.8806 45.3184 95.968L47.2896 98.1056C47.3707 98.1928 47.4337 98.2952 47.4751 98.4068C47.5164 98.5185 47.5353 98.6373 47.5305 98.7563C47.5257 98.8752 47.4975 98.9921 47.4473 99.1001C47.3972 99.2081 47.3262 99.3052 47.2384 99.3856L45.152 101.306C45.0648 101.387 44.9624 101.45 44.8507 101.491C44.7391 101.532 44.6203 101.551 44.5013 101.547C44.3823 101.542 44.2655 101.513 44.1574 101.463C44.0494 101.413 43.9524 101.342 43.872 101.254L41.9008 99.1168C41.8189 99.03 41.7551 98.9277 41.7133 98.816C41.6715 98.7042 41.6524 98.5853 41.6571 98.466C41.6619 98.3468 41.6904 98.2297 41.7411 98.1217C41.7917 98.0136 41.8634 97.9168 41.952 97.8368L44.0384 95.9232ZM30.3424 83.0272C31.0908 82.3278 31.9356 81.7394 32.8512 81.28C33.7206 80.8406 34.661 80.5589 35.6288 80.448C36.5578 80.3454 37.498 80.4414 38.3872 80.7296C39.3318 81.052 40.1765 81.6144 40.8384 82.3616C41.3922 82.9243 41.8274 83.5924 42.1184 84.3264C42.3531 84.9702 42.4911 85.6453 42.528 86.3296C42.5645 86.9958 42.5431 87.6639 42.464 88.3264C42.3808 88.9664 42.304 89.6064 42.2336 90.2016C42.1641 90.762 42.1448 91.3274 42.176 91.8912C42.1972 92.3979 42.3614 92.8882 42.6496 93.3056C42.7736 93.4969 42.8443 93.7178 42.8544 93.9456C42.8599 94.0578 42.8398 94.1697 42.7954 94.2729C42.751 94.376 42.6836 94.4677 42.5984 94.5408L40.7552 96.2496C40.5803 96.4081 40.3511 96.4929 40.1152 96.4864C39.9982 96.4907 39.8818 96.4668 39.776 96.4167C39.6702 96.3665 39.578 96.2917 39.5072 96.1984C38.9951 95.603 38.6077 94.911 38.368 94.1632C38.1675 93.4916 38.0556 92.7966 38.0352 92.096C38.0152 91.4198 38.0537 90.7432 38.1504 90.0736C38.2464 89.4336 38.3232 88.7936 38.3872 88.2176C38.4445 87.6879 38.4445 87.1537 38.3872 86.624C38.3454 86.1677 38.1542 85.738 37.8432 85.4016C37.5726 85.1017 37.2331 84.8722 36.854 84.7329C36.4749 84.5935 36.0676 84.5484 35.6672 84.6016C34.6796 84.7293 33.7618 85.1792 33.056 85.8816C31.6821 87.1616 31.3045 88.7851 31.9232 90.752C31.9991 90.9569 32.0381 91.1735 32.0384 91.392C32.0225 91.4997 31.9855 91.6032 31.9295 91.6966C31.8735 91.79 31.7996 91.8713 31.712 91.936L29.7472 93.7536C29.6099 93.8862 29.4261 93.9597 29.2352 93.9584C29.1374 93.9568 29.0411 93.9342 28.9528 93.8923C28.8645 93.8503 28.7862 93.7899 28.7232 93.7152C28.1791 93.0857 27.7988 92.3317 27.616 91.52C27.3988 90.5912 27.349 89.6311 27.4688 88.6848C27.6002 87.6475 27.8984 86.6382 28.352 85.696C28.835 84.6851 29.5112 83.7785 30.3424 83.0272Z" fill="#2F7FCE"/>
<g opacity="0.6">
<path d="M44.0384 95.9232C44.1236 95.8427 44.2242 95.7802 44.3342 95.7395C44.4442 95.6988 44.5612 95.6807 44.6784 95.6864C44.7985 95.688 44.917 95.7138 45.027 95.7622C45.1369 95.8106 45.236 95.8806 45.3184 95.968L47.2896 98.1056C47.3707 98.1928 47.4337 98.2952 47.4751 98.4068C47.5164 98.5185 47.5353 98.6373 47.5305 98.7563C47.5257 98.8752 47.4975 98.9921 47.4473 99.1001C47.3972 99.2081 47.3262 99.3052 47.2384 99.3856L45.152 101.306C45.0648 101.387 44.9624 101.45 44.8507 101.491C44.7391 101.532 44.6203 101.551 44.5013 101.547C44.3823 101.542 44.2655 101.513 44.1574 101.463C44.0494 101.413 43.9524 101.342 43.872 101.254L41.9008 99.1168C41.8189 99.03 41.7551 98.9277 41.7133 98.816C41.6715 98.7042 41.6524 98.5853 41.6571 98.466C41.6619 98.3468 41.6904 98.2297 41.7411 98.1217C41.7917 98.0136 41.8634 97.9168 41.952 97.8368L44.0384 95.9232ZM30.3424 83.0272C31.0908 82.3278 31.9356 81.7394 32.8512 81.28C33.7206 80.8406 34.661 80.5589 35.6288 80.448C36.5578 80.3454 37.498 80.4414 38.3872 80.7296C39.3318 81.052 40.1765 81.6144 40.8384 82.3616C41.3922 82.9243 41.8274 83.5924 42.1184 84.3264C42.3531 84.9702 42.4911 85.6453 42.528 86.3296C42.5645 86.9958 42.5431 87.6639 42.464 88.3264C42.3808 88.9664 42.304 89.6064 42.2336 90.2016C42.1641 90.762 42.1448 91.3274 42.176 91.8912C42.1972 92.3979 42.3614 92.8882 42.6496 93.3056C42.7736 93.4969 42.8443 93.7178 42.8544 93.9456C42.8599 94.0578 42.8398 94.1697 42.7954 94.2729C42.751 94.376 42.6836 94.4677 42.5984 94.5408L40.7552 96.2496C40.5803 96.4081 40.3511 96.4929 40.1152 96.4864C39.9982 96.4907 39.8818 96.4668 39.776 96.4167C39.6702 96.3665 39.578 96.2917 39.5072 96.1984C38.9951 95.603 38.6077 94.911 38.368 94.1632C38.1675 93.4916 38.0556 92.7966 38.0352 92.096C38.0152 91.4198 38.0537 90.7432 38.1504 90.0736C38.2464 89.4336 38.3232 88.7936 38.3872 88.2176C38.4445 87.6879 38.4445 87.1537 38.3872 86.624C38.3454 86.1677 38.1542 85.738 37.8432 85.4016C37.5726 85.1017 37.2331 84.8722 36.854 84.7329C36.4749 84.5935 36.0676 84.5484 35.6672 84.6016C34.6796 84.7293 33.7618 85.1792 33.056 85.8816C31.6821 87.1616 31.3045 88.7851 31.9232 90.752C31.9991 90.9569 32.0381 91.1735 32.0384 91.392C32.0225 91.4997 31.9855 91.6032 31.9295 91.6966C31.8735 91.79 31.7996 91.8713 31.712 91.936L29.7472 93.7536C29.6099 93.8862 29.4261 93.9597 29.2352 93.9584C29.1374 93.9568 29.0411 93.9342 28.9528 93.8923C28.8645 93.8503 28.7862 93.7899 28.7232 93.7152C28.1791 93.0857 27.7988 92.3317 27.616 91.52C27.3988 90.5912 27.349 89.6311 27.4688 88.6848C27.6002 87.6475 27.8984 86.6382 28.352 85.696C28.835 84.6851 29.5112 83.7785 30.3424 83.0272Z" fill="white"/>
</g>
<path d="M174.362 140.576C172.538 139.533 164.858 135.091 162.246 133.581C161.728 133.286 161.402 133.094 161.376 133.075C160.078 132.351 158.561 132.124 157.107 132.435C155.86 132.688 154.665 133.154 153.574 133.811C153.395 133.914 153.216 134.035 153.043 134.15C150.093 136.013 147.558 138.944 145.446 142.976C143.296 146.903 142.142 151.299 142.086 155.776C142.086 160.017 143.217 162.993 145.478 164.704C145.707 164.875 145.947 165.031 146.195 165.171C148.314 166.374 158.938 172.531 159.174 172.666H159.232C158.971 172.522 158.72 172.36 158.483 172.179C156.218 170.473 155.087 167.499 155.091 163.258C155.147 158.78 156.301 154.385 158.451 150.458C160.683 146.191 163.39 143.134 166.573 141.286C169.602 139.537 172.218 139.309 174.419 140.602L174.362 140.576Z" fill="#2F7FCE"/>
<path opacity="0.4" d="M174.419 140.614C172.218 139.334 169.602 139.561 166.573 141.293C163.616 142.999 161.067 145.773 158.925 149.613L145.92 142.08C147.93 138.49 150.304 135.846 153.037 134.125C153.21 134.016 153.389 133.888 153.568 133.786C154.657 133.127 155.853 132.664 157.101 132.416C158.554 132.101 160.072 132.329 161.37 133.056L162.24 133.562C164.851 135.066 172.531 139.507 174.355 140.55L174.419 140.614Z" fill="black"/>
<path opacity="0.3" d="M159.232 172.646H159.174C158.938 172.512 148.294 166.355 146.195 165.152C145.947 165.011 145.707 164.855 145.478 164.685C143.217 162.978 142.086 160.004 142.086 155.763C142.141 151.286 143.294 146.89 145.446 142.963C145.6 142.662 145.76 142.368 145.926 142.086L158.925 149.594C158.765 149.875 158.605 150.17 158.451 150.464C156.301 154.391 155.147 158.787 155.091 163.264C155.091 167.505 156.222 170.479 158.483 172.186C158.721 172.357 158.971 172.511 159.232 172.646Z" fill="black"/>
<path d="M168.691 30.752C175.002 27.104 180.373 25.5531 184.806 26.0992C186.611 26.3147 188.352 26.8939 189.926 27.8016C189.882 27.7784 189.84 27.7527 189.798 27.7248C188.275 26.8672 179.098 21.5744 176.998 20.3392C175.397 19.4033 173.619 18.8105 171.776 18.5984C167.339 18.0565 161.965 19.6053 155.654 23.2448C145.841 28.9067 137.948 37.2267 131.974 48.2048C126.001 59.1829 123.046 70.3893 123.11 81.824L136.109 89.3312C136.019 77.888 138.974 66.6795 144.973 55.7056C150.972 44.7317 158.878 36.4139 168.691 30.752Z" fill="#2F7FCE"/>
<path opacity="0.2" d="M189.824 27.7312C188.273 26.8673 186.569 26.313 184.806 26.0992C180.378 25.5531 175.006 27.104 168.691 30.752C158.878 36.4096 150.985 44.7296 145.011 55.712C144.762 56.1664 144.518 56.6272 144.282 57.0816L131.251 49.5616C131.488 49.1072 131.731 48.6464 131.981 48.192C137.98 37.2224 145.873 28.9024 155.661 23.232C161.98 19.5883 167.354 18.0395 171.782 18.5856C173.625 18.7998 175.404 19.3948 177.005 20.3328C179.123 21.5808 188.301 26.88 189.824 27.7312Z" fill="black"/>
<path opacity="0.3" d="M144.25 57.0688C138.741 67.6032 136.03 78.3531 136.115 89.3184L123.117 81.8112C123.036 70.8416 125.747 60.0917 131.251 49.5616L144.25 57.0688Z" fill="black"/>
<path d="M177.523 52.0256C175.164 50.7712 172.013 51.2619 168.07 53.4976C167.937 55.8432 167.454 58.1557 166.637 60.3584C165.651 63.0123 162.784 68.4864 158.035 76.7808C153.116 85.3568 149.557 93.5467 147.36 101.35C145.181 109.055 144.074 117.023 144.07 125.03L144.134 129.018L153.005 134.138L157.139 136.525L157.069 132.531V132.48C157.083 124.499 158.19 116.558 160.358 108.877C162.556 101.073 166.116 92.8853 171.04 84.3136C175.785 76.0192 178.65 70.5429 179.635 67.8848C180.619 65.2569 181.122 62.4733 181.12 59.6672C181.12 55.8485 179.921 53.3013 177.523 52.0256Z" fill="#2F7FCE"/>
<path opacity="0.3" d="M178.362 70.7584C176.894 73.8133 174.453 78.3232 171.04 84.288C166.112 92.864 162.551 101.054 160.358 108.858C158.187 116.544 157.081 124.493 157.069 132.48V132.582L157.139 136.576L153.005 134.195L144.134 129.075L144.07 125.082C144.074 117.075 145.181 109.106 147.36 101.402C149.557 93.5979 153.116 85.408 158.035 76.832C161.449 70.8587 163.893 66.3509 165.37 63.3088L178.362 70.7584Z" fill="black"/>
<path opacity="0.4" d="M181.12 59.6672C181.121 62.4643 180.621 65.239 179.642 67.8592C179.366 68.608 178.938 69.5744 178.362 70.7584L165.37 63.2576C165.937 62.0715 166.364 61.1051 166.65 60.3584C167.467 58.1557 167.95 55.8432 168.083 53.4976C172.026 51.2619 175.177 50.7712 177.536 52.0256C179.895 53.28 181.09 55.8272 181.12 59.6672Z" fill="black"/>
<path d="M153.709 79.1552L136.115 89.3184C136.026 77.8752 138.98 66.6667 144.979 55.6928C150.978 44.7189 158.871 36.3989 168.659 30.7328C174.97 27.0848 180.341 25.5339 184.774 26.08C189.207 26.6261 192.755 29.056 195.418 33.3696C198.084 37.6832 199.418 43.0635 199.418 49.5104C199.391 53.2533 198.962 56.9825 198.138 60.6336C197.14 65.0011 195.794 69.2815 194.112 73.4336C193.037 76.1472 190.462 81.1563 186.387 88.4608C182.492 95.424 180.051 100.162 179.066 102.675C177.972 105.658 177.159 108.737 176.64 111.872C175.865 116.557 175.437 121.293 175.36 126.042L157.165 136.55L157.094 132.557C157.098 124.55 158.205 116.582 160.384 108.877C162.581 101.073 166.142 92.8853 171.066 84.3136C175.81 76.0192 178.675 70.5429 179.661 67.8848C180.636 65.2553 181.131 62.4718 181.12 59.6672C181.12 55.8272 179.923 53.28 177.53 52.0256C175.136 50.7712 171.923 51.296 167.891 53.6C163.77 55.9808 160.388 59.552 157.747 64.3136C155.164 68.8383 153.775 73.9456 153.709 79.1552Z" fill="#2F7FCE"/>
<path d="M166.541 141.331C169.805 139.441 172.591 139.324 174.899 140.979C177.207 142.635 178.362 145.581 178.362 149.818C178.292 154.319 177.116 158.735 174.938 162.675C172.659 167.006 169.905 170.103 166.675 171.968C163.445 173.833 160.702 173.909 158.445 172.198C156.183 170.492 155.053 167.516 155.053 163.27C155.109 158.793 156.262 154.398 158.413 150.47C160.653 146.212 163.362 143.166 166.541 141.331Z" fill="#2F7FCE"/>
</svg>
